<svg width="35" height="22" viewBox="0 0 35 22" fill="none" xmlns="http://www.w3.org/2000/svg">
<path d="M3.58398 0.292969L3.59766 0.286133L3.63184 0.299805C3.65007 0.286133 3.67057 0.277018 3.69336 0.272461L3.7959 0.306641L3.78906 0.292969C3.9349 0.32487 4.01009 0.349935 4.01465 0.368164C4.03743 0.390951 4.05339 0.420573 4.0625 0.457031L4.08984 0.436523C4.08984 0.445638 4.12174 0.484375 4.18555 0.552734L4.19238 0.580078L4.17871 0.586914C4.17871 0.596029 4.18327 0.600586 4.19238 0.600586C4.23796 0.883138 4.16732 1.37988 3.98047 2.09082C3.96224 2.14551 3.94401 2.17513 3.92578 2.17969H3.91211L3.87793 2.16602C3.8916 2.24349 3.85514 2.32096 3.76855 2.39844L3.74121 2.54883L3.74805 2.5625L3.76172 2.55566C3.75716 2.50553 3.76855 2.47819 3.7959 2.47363L3.83008 2.4668C3.83008 2.48958 3.81413 2.50326 3.78223 2.50781L3.80273 2.53516C3.80273 2.58984 3.764 2.63997 3.68652 2.68555C3.66829 2.89518 3.60221 3.06608 3.48828 3.19824L3.33789 3.54688L3.3584 3.57422C3.30827 3.64258 3.2513 3.77018 3.1875 3.95703C3.16927 3.96615 3.14193 4.02539 3.10547 4.13477L3.1123 4.18262L3.06445 4.18945C3.06901 4.23047 3.0485 4.26693 3.00293 4.29883C2.99837 4.28516 2.99154 4.2806 2.98242 4.28516C2.98698 4.30794 2.97559 4.34212 2.94824 4.3877L2.91406 4.45605H2.92773C2.93229 4.53809 2.8776 4.67025 2.76367 4.85254H2.72949C2.72949 4.84342 2.72493 4.84115 2.71582 4.8457C2.72038 4.86393 2.71582 4.87305 2.70215 4.87305C2.67936 4.86849 2.66341 4.86621 2.6543 4.86621L2.51758 5.03711C2.53125 5.05534 2.54036 5.06901 2.54492 5.07812L2.57227 5.05762V5.0918C2.53581 5.17383 2.50163 5.21712 2.46973 5.22168C2.42871 5.20345 2.39909 5.19661 2.38086 5.20117L2.37402 5.23535L2.40137 5.22852C2.41048 5.2832 2.33301 5.43587 2.16895 5.68652C2.1735 5.70931 2.15755 5.75033 2.12109 5.80957H2.1416C2.16895 5.77767 2.18034 5.7526 2.17578 5.73438L2.20996 5.74805C2.21908 5.72526 2.22135 5.70247 2.2168 5.67969L2.24414 5.67285L2.25781 5.7207C2.08008 5.95768 1.91602 6.21517 1.76562 6.49316H1.79297L1.7998 6.54102C1.77246 6.54557 1.75423 6.60254 1.74512 6.71191C1.73145 6.71191 1.71322 6.73014 1.69043 6.7666C1.69043 6.75749 1.68587 6.75293 1.67676 6.75293V6.78711L1.69727 6.81445L1.67676 6.88281C1.69954 6.95573 1.71094 6.99674 1.71094 7.00586C1.70182 7.08333 1.70182 7.14714 1.71094 7.19727L1.72461 7.2793L1.71094 7.31348L1.67676 7.2998L1.66309 7.30664V7.32031L1.69727 7.31348L1.7041 7.36133L1.69043 7.36816L1.68359 7.33398L1.64941 7.34082L1.65625 7.35449C1.68359 7.38639 1.69727 7.41146 1.69727 7.42969C1.68815 7.42969 1.68359 7.43424 1.68359 7.44336C1.70182 7.44336 1.72689 7.48893 1.75879 7.58008C1.74512 7.66667 1.72917 7.71224 1.71094 7.7168L1.73145 7.74414L1.73828 7.77832C1.7474 7.83301 1.73145 7.93327 1.69043 8.0791C1.66764 8.0791 1.65625 8.08594 1.65625 8.09961L1.71094 8.20215C1.69271 8.20671 1.68132 8.23633 1.67676 8.29102C1.68587 8.30469 1.69271 8.3252 1.69727 8.35254L1.66992 8.37305C1.66992 8.38216 1.67676 8.38672 1.69043 8.38672L1.66992 8.77637C1.68359 8.7946 1.69043 8.80827 1.69043 8.81738C1.6722 8.8265 1.66309 8.84017 1.66309 8.8584L1.67676 8.90625L1.73145 8.96094L1.77246 9.21387L1.75879 9.24805C1.79069 9.24349 1.82259 9.30273 1.85449 9.42578L1.88184 9.41895C2.00033 9.3278 2.11426 9.19792 2.22363 9.0293C2.30566 8.95182 2.38997 8.86296 2.47656 8.7627L2.49023 8.75586L2.49707 8.79004L2.54492 8.7832C2.54036 8.7513 2.56087 8.68294 2.60645 8.57812C2.60645 8.57357 2.63607 8.5485 2.69531 8.50293L2.72266 8.49609L2.72949 8.50977C2.72949 8.51888 2.70671 8.55078 2.66113 8.60547V8.61914H2.68164C2.73177 8.5599 2.75684 8.5166 2.75684 8.48926C2.74316 8.47559 2.73405 8.45508 2.72949 8.42773C2.74772 8.36393 2.78646 8.29329 2.8457 8.21582L2.8252 8.18848C2.82064 8.1748 2.85482 8.13151 2.92773 8.05859C2.95508 7.94466 2.98926 7.88542 3.03027 7.88086L3.00977 7.85352C3.00977 7.83529 3.02344 7.81706 3.05078 7.79883L3.05762 7.82617L3.04395 7.86035H3.07812C3.22852 7.52767 3.30143 7.33854 3.29688 7.29297L3.29004 7.24512L3.25586 7.16309L3.13965 7.25195L3.14648 7.26562L3.17383 7.25879C3.17839 7.28158 3.17155 7.29297 3.15332 7.29297C3.13053 7.28841 3.1123 7.28613 3.09863 7.28613L3.11914 7.32031C3.08724 7.3431 3.05762 7.35677 3.03027 7.36133L3.05762 7.31348H3.03711C2.97331 7.36361 2.94141 7.39551 2.94141 7.40918L2.97559 7.40234V7.42285C2.95736 7.42285 2.93913 7.43652 2.9209 7.46387H2.90039V7.4502L2.90723 7.41602H2.89355C2.83431 7.44336 2.80697 7.47982 2.81152 7.52539L2.77734 7.51855L2.75 7.53906L2.77051 7.56641L2.77734 7.60059C2.70443 7.6416 2.66569 7.66211 2.66113 7.66211L2.69531 7.70996C2.65885 7.76921 2.61556 7.80111 2.56543 7.80566L2.54492 7.77832C2.55859 7.77832 2.56315 7.77376 2.55859 7.76465L2.51074 7.77148L2.51758 7.79883L2.45605 7.8125C2.40137 7.79883 2.35807 7.76693 2.32617 7.7168C2.33529 7.7168 2.33984 7.70996 2.33984 7.69629C2.32617 7.70085 2.30794 7.68945 2.28516 7.66211V7.6416H2.3125V7.60742L2.27832 7.61426L2.28516 7.6416L2.25098 7.64844C2.24642 7.61198 2.27148 7.55957 2.32617 7.49121C2.27148 7.50033 2.24186 7.49349 2.2373 7.4707C2.34212 7.375 2.39225 7.31803 2.3877 7.2998C2.34668 7.30892 2.32617 7.30208 2.32617 7.2793C2.52669 7.09701 2.65658 7.0013 2.71582 6.99219L2.77734 6.99902C2.76823 6.93066 2.84798 6.85319 3.0166 6.7666C3.0166 6.74382 3.05534 6.71647 3.13281 6.68457C3.14648 6.68457 3.15332 6.68913 3.15332 6.69824L3.22852 6.6709C3.32422 6.66634 3.37891 6.66178 3.39258 6.65723C3.41081 6.64355 3.42448 6.63672 3.43359 6.63672V6.65039L3.46777 6.62988C3.53158 6.64355 3.56576 6.65951 3.57031 6.67773L3.59766 6.65723C3.7207 6.68001 3.78906 6.7347 3.80273 6.82129C3.81185 6.82129 3.82552 6.83496 3.84375 6.8623L3.80957 6.95117V6.97852C3.81868 6.97852 3.84147 6.98079 3.87793 6.98535L3.85742 6.95801C3.86654 6.93978 3.86882 6.91699 3.86426 6.88965H3.8916L3.90527 6.96484L3.87109 7.05371L3.87793 7.10156C3.84603 7.10612 3.83236 7.15169 3.83691 7.23828C3.86882 7.23372 3.88477 7.236 3.88477 7.24512C3.81641 7.51855 3.69336 7.79655 3.51562 8.0791C3.4974 8.08366 3.43815 8.18392 3.33789 8.37988C3.29688 8.45736 3.23763 8.52799 3.16016 8.5918C3.08724 8.72852 3.03483 8.80143 3.00293 8.81055L2.9209 8.80371C2.83887 8.9222 2.80013 8.98828 2.80469 9.00195L2.81836 8.99512C2.83203 8.99512 2.87305 8.94043 2.94141 8.83105H2.95508L2.98242 8.89258C2.94141 8.92448 2.89811 8.99056 2.85254 9.09082C2.80697 9.09993 2.70671 9.21842 2.55176 9.44629L2.52441 9.4668C2.51986 9.45312 2.51302 9.44857 2.50391 9.45312V9.4668L2.52441 9.49414C2.46517 9.60352 2.37174 9.6901 2.24414 9.75391C2.24414 9.76302 2.23275 9.79036 2.20996 9.83594L2.17578 9.8291H2.16211C2.16211 9.87923 2.0778 9.9362 1.90918 10L1.83398 10.0137C1.82031 10.0137 1.81348 10.0091 1.81348 10L1.78613 10.0205H1.76562C1.56966 9.99316 1.46712 9.94987 1.45801 9.89062L1.46484 9.85645C1.45117 9.861 1.43294 9.84733 1.41016 9.81543C1.41016 9.80632 1.41471 9.80176 1.42383 9.80176C1.38281 9.74251 1.3623 9.70833 1.3623 9.69922H1.34863L1.31445 9.71973C1.29622 9.66504 1.28711 9.63542 1.28711 9.63086C1.26888 9.52148 1.25977 9.3916 1.25977 9.24121C1.24609 9.22298 1.23698 9.20931 1.23242 9.2002C1.25065 9.19564 1.26888 9.17057 1.28711 9.125C1.25977 9.07031 1.23698 8.99967 1.21875 8.91309L1.23926 8.90625C1.25749 8.90625 1.26888 8.91536 1.27344 8.93359L1.25293 8.98828L1.30078 9.00879L1.30762 8.92676C1.29395 8.93132 1.28711 8.92676 1.28711 8.91309C1.3099 8.91309 1.3099 8.83789 1.28711 8.6875C1.27344 8.69206 1.26432 8.67383 1.25977 8.63281H1.23926V8.72852L1.22559 8.73535V8.71484L1.21191 8.55762L1.24609 8.55078C1.25521 8.60547 1.27572 8.62826 1.30762 8.61914C1.30306 8.5918 1.30534 8.57585 1.31445 8.57129C1.28255 8.52116 1.2666 8.48698 1.2666 8.46875C1.27116 8.44596 1.27344 8.42318 1.27344 8.40039L1.25293 8.40723C1.28027 8.35254 1.29167 8.31152 1.28711 8.28418H1.31445C1.33724 8.27962 1.35091 8.29329 1.35547 8.3252L1.36914 8.31836C1.39193 8.25 1.40104 8.20671 1.39648 8.18848C1.38737 8.18848 1.38281 8.18392 1.38281 8.1748C1.39193 8.1748 1.39648 8.16797 1.39648 8.1543C1.3737 8.15885 1.36003 8.14974 1.35547 8.12695C1.38737 8.1224 1.40332 8.05632 1.40332 7.92871C1.38053 7.84668 1.35775 7.79655 1.33496 7.77832C1.36686 7.77376 1.38965 7.7487 1.40332 7.70312L1.37598 7.62793C1.39421 7.62337 1.41243 7.53906 1.43066 7.375C1.41699 7.35677 1.41016 7.34082 1.41016 7.32715H1.42383L1.40332 7.2998C1.40332 7.28613 1.40788 7.2793 1.41699 7.2793L1.39648 7.25195L1.41016 7.04004C1.39648 7.01725 1.38965 7.0013 1.38965 6.99219C1.39421 6.9694 1.39648 6.95345 1.39648 6.94434C1.38737 6.94434 1.38053 6.93978 1.37598 6.93066C1.38965 6.92611 1.39421 6.91927 1.38965 6.91016L1.42383 6.92383L1.44434 6.91699L1.4375 6.88965L1.45117 6.88281L1.48535 6.89648V6.88281C1.48079 6.86914 1.47396 6.86458 1.46484 6.86914L1.47852 6.83496L1.47168 6.81445L1.42383 6.82129C1.42839 6.85319 1.42155 6.87142 1.40332 6.87598H1.38965L1.38281 6.84863H1.3623L1.32129 6.88965L1.29395 6.89648L1.28027 6.81445L1.25293 6.83496L1.20508 6.8418C1.18229 6.79167 1.1709 6.76204 1.1709 6.75293C1.18001 6.74837 1.18457 6.74154 1.18457 6.73242H1.1709C1.17546 6.75521 1.16634 6.76888 1.14355 6.77344L1.06836 6.70508C1.07292 6.72331 1.0638 6.7347 1.04102 6.73926L1.02051 6.71191L1.06836 6.62305V6.60938L1.02734 6.64355L0.945312 6.65723V6.64355C0.94987 6.62077 0.952148 6.60254 0.952148 6.58887C0.943034 6.59342 0.936198 6.59115 0.931641 6.58203C0.972656 6.55924 1 6.52734 1.01367 6.48633L0.986328 6.41113C1.04102 6.31999 1.10254 6.26074 1.1709 6.2334C1.21647 6.17871 1.24609 6.13086 1.25977 6.08984C1.35547 6.01237 1.40104 5.95085 1.39648 5.90527C1.38737 5.86426 1.42155 5.78451 1.49902 5.66602C1.52637 5.52018 1.54915 5.44727 1.56738 5.44727L1.54004 5.41309L1.54688 5.35156V5.31738H1.52637L1.54004 5.38574H1.50586V5.37207C1.48307 5.22624 1.49219 5.14876 1.5332 5.13965L1.5127 5.1123C1.52637 5.04395 1.53776 5.00977 1.54688 5.00977C1.5332 5.00065 1.52181 4.96419 1.5127 4.90039L1.49219 4.90723C1.5013 4.94824 1.49447 4.97103 1.47168 4.97559H1.45801C1.44889 4.91178 1.46712 4.85026 1.5127 4.79102L1.52637 4.78418L1.5332 4.81836H1.54688L1.58105 4.4082L1.56055 4.38086C1.5651 4.27148 1.5765 4.21452 1.59473 4.20996L1.62891 4.22363C1.66081 4.14616 1.67448 4.10059 1.66992 4.08691C1.66536 4.05501 1.64941 4.014 1.62207 3.96387L1.63574 3.92969L1.6084 3.90234C1.66309 3.75651 1.68359 3.64486 1.66992 3.56738H1.65625V3.55371C1.70182 3.54915 1.72917 3.48535 1.73828 3.3623L1.69043 3.36914L1.66309 3.38965L1.65625 3.37598C1.66536 3.28939 1.68132 3.24382 1.7041 3.23926C1.7041 3.24837 1.70866 3.25293 1.71777 3.25293L1.73145 3.21875L1.72461 3.20508L1.69727 3.22559V3.19141L1.77246 3.16406L1.75195 3.05469L1.76562 3.02051C1.75195 3.02051 1.74512 3.01595 1.74512 3.00684C1.78158 2.95215 1.82943 2.81543 1.88867 2.59668C1.9069 2.59212 1.92285 2.52376 1.93652 2.3916C2.014 2.31868 2.04818 2.25033 2.03906 2.18652L2.07324 2.19336H2.08691V2.17969C2.06413 2.17969 2.05273 2.17513 2.05273 2.16602C2.06185 2.12044 2.07324 2.09766 2.08691 2.09766C2.08691 2.10677 2.09375 2.11133 2.10742 2.11133C2.12109 2.02018 2.16667 1.93587 2.24414 1.8584L2.22363 1.83105C2.2373 1.80827 2.25781 1.7627 2.28516 1.69434C2.30794 1.68978 2.33073 1.66927 2.35352 1.63281L2.33301 1.60547C2.48796 1.31836 2.62467 1.12467 2.74316 1.02441C2.74316 1.03353 2.75 1.03809 2.76367 1.03809L2.75 1.06543V1.08594L2.79785 1.0791C2.86621 1.02441 2.89583 0.969727 2.88672 0.915039C2.86849 0.910482 2.84798 0.910482 2.8252 0.915039C2.8252 0.874023 2.85026 0.837565 2.90039 0.805664L2.93457 0.798828L2.94141 0.826172H2.95508C2.95052 0.798828 2.97786 0.773763 3.03711 0.750977L3.03027 0.703125L2.97559 0.757812H2.96191L2.95508 0.744141C3.03711 0.616536 3.1556 0.511719 3.31055 0.429688L3.34473 0.443359C3.34017 0.416016 3.42676 0.379557 3.60449 0.333984V0.320312L3.58398 0.292969ZM3.53613 0.942383C3.53158 0.965169 3.5293 0.983398 3.5293 0.99707H3.50195C3.48828 1.00163 3.48145 0.99707 3.48145 0.983398C3.41764 1.00618 3.3903 1.03809 3.39941 1.0791C3.40853 1.0791 3.41309 1.08366 3.41309 1.09277C3.36296 1.16113 3.31283 1.20671 3.2627 1.22949L3.22852 1.22266L3.19434 1.24316L3.21484 1.27051L3.22168 1.28418C3.22168 1.3252 3.12142 1.44824 2.9209 1.65332C2.83431 1.79915 2.7819 1.87207 2.76367 1.87207L2.78418 1.90625C2.78418 1.93815 2.71354 2.03385 2.57227 2.19336C2.57682 2.2207 2.57454 2.24349 2.56543 2.26172C2.57454 2.26172 2.58138 2.26628 2.58594 2.27539C2.57227 2.27539 2.55632 2.28223 2.53809 2.2959L2.55859 2.33008C2.4082 2.70833 2.32845 2.92025 2.31934 2.96582C2.26465 2.97493 2.22591 3.10482 2.20312 3.35547L2.22363 3.38281C2.21452 3.42839 2.20312 3.45117 2.18945 3.45117C2.1849 3.44206 2.17806 3.4375 2.16895 3.4375C2.09603 3.66992 2.06413 3.80436 2.07324 3.84082C2.07324 3.9502 2.06413 4.00716 2.0459 4.01172C2.06413 4.02995 2.07324 4.04362 2.07324 4.05273C2.0459 4.10286 2.03223 4.19173 2.03223 4.31934L2.06641 4.33301C2.06185 4.35124 2.05957 4.36719 2.05957 4.38086L2.02539 4.36719C2.02539 4.42188 1.98893 4.49251 1.91602 4.5791H1.94336L1.9502 4.60645C1.89551 4.61556 1.86816 4.68392 1.86816 4.81152L1.88867 4.8457L1.86816 4.92773C1.88184 4.92773 1.88867 4.93229 1.88867 4.94141C1.87044 4.94596 1.86133 4.95736 1.86133 4.97559L1.88184 5.10547L1.89551 5.09863V5.07129L1.90918 5.06445L1.97754 5.10547C1.97298 5.08268 2.1097 4.88216 2.3877 4.50391C2.42871 4.42188 2.46289 4.33073 2.49023 4.23047L2.68164 3.92285H2.69531L2.70215 3.93652L2.6748 3.99121L2.68164 4.00488C2.75 3.92741 2.79557 3.80664 2.81836 3.64258L3.04395 3.22559L3.07812 3.23242L3.20801 2.84277L3.20117 2.80859H3.1875L3.19434 2.85645C3.17155 2.861 3.16016 2.85189 3.16016 2.8291L3.15332 2.81543C3.23079 2.67415 3.2946 2.5306 3.34473 2.38477V2.36426L3.32422 2.33691L3.35156 2.33008L3.3584 2.36426H3.37207C3.37207 2.35059 3.37435 2.33236 3.37891 2.30957C3.35612 2.27767 3.34245 2.24805 3.33789 2.2207C3.41536 1.92904 3.47461 1.75814 3.51562 1.70801C3.54753 1.50293 3.57715 1.39128 3.60449 1.37305C3.60905 1.38216 3.61589 1.38672 3.625 1.38672L3.61816 1.36621L3.59082 1.29102C3.60905 1.29102 3.62272 1.26823 3.63184 1.22266C3.62272 1.22266 3.61589 1.2181 3.61133 1.20898L3.67285 1.19531C3.66829 1.13151 3.67513 1.09961 3.69336 1.09961C3.6569 1.02669 3.625 0.992513 3.59766 0.99707L3.59082 0.983398C3.62272 0.978841 3.63867 0.965169 3.63867 0.942383C3.62956 0.94694 3.59538 0.94694 3.53613 0.942383ZM3.4541 1.02441V1.03809C3.45866 1.06087 3.44954 1.07227 3.42676 1.07227L3.41309 1.0791C3.41309 1.06087 3.42676 1.04264 3.4541 1.02441ZM3.55664 1.76953L3.625 1.57812L3.61816 1.56445H3.60449C3.57715 1.56901 3.5612 1.63737 3.55664 1.76953ZM2.00488 2.48047C2.00488 2.48958 2.00033 2.50553 1.99121 2.52832L1.99805 2.54883L2.01172 2.54199C2.01172 2.53288 2.014 2.51693 2.01855 2.49414V2.48047H2.00488ZM1.95703 2.50098C1.95703 2.51465 1.95475 2.53288 1.9502 2.55566V2.56934H1.96387C1.96387 2.55566 1.96842 2.53743 1.97754 2.51465L1.9707 2.50098H1.95703ZM1.84766 2.84277L1.86816 2.87012C1.86361 2.8929 1.86133 2.91569 1.86133 2.93848C1.89323 2.9248 1.90462 2.89062 1.89551 2.83594L1.84766 2.84277ZM1.64258 3.39648C1.66536 3.39648 1.67904 3.4056 1.68359 3.42383L1.65625 3.47168L1.66309 3.50586L1.69727 3.49902C1.69727 3.52181 1.68815 3.5332 1.66992 3.5332C1.66536 3.52409 1.65853 3.51953 1.64941 3.51953C1.6403 3.54232 1.63802 3.5651 1.64258 3.58789L1.6084 3.59473C1.6084 3.58105 1.61979 3.51497 1.64258 3.39648ZM3.48828 3.37598H3.51562L3.52246 3.38965C3.52246 3.41243 3.51335 3.42383 3.49512 3.42383L3.48828 3.37598ZM2.93457 3.59473C2.93913 3.61296 2.93229 3.63574 2.91406 3.66309H2.93457L2.95508 3.6084V3.59473H2.93457ZM1.98438 3.88867C1.98438 3.91146 1.9821 3.93424 1.97754 3.95703H1.99121C2.014 3.95247 2.02311 3.9388 2.01855 3.91602C2.014 3.89779 2.0026 3.88867 1.98438 3.88867ZM1.96387 3.99121C1.96842 4.02767 1.96842 4.05501 1.96387 4.07324V4.08691H1.97754L1.99805 3.98438L1.96387 3.99121ZM3.08496 4.02539L3.0918 4.03906H3.10547C3.10091 4.02083 3.10775 3.99805 3.12598 3.9707V3.9502C3.10775 3.95475 3.09408 3.97982 3.08496 4.02539ZM1.64258 4.28516V4.3125L1.6084 4.30566L1.61523 4.31934L1.64258 4.39453H1.65625C1.65169 4.34896 1.65169 4.31706 1.65625 4.29883V4.27832L1.64258 4.28516ZM2.72266 4.69531C2.73633 4.71354 2.74544 4.72949 2.75 4.74316L2.76367 4.73633C2.83659 4.60872 2.88216 4.49479 2.90039 4.39453C2.92318 4.38997 2.93229 4.3763 2.92773 4.35352L2.91406 4.36035C2.88216 4.39681 2.81836 4.50846 2.72266 4.69531ZM2.34668 5.46777L2.37402 5.46094L2.38086 5.49512C2.34896 5.57259 2.32389 5.61361 2.30566 5.61816H2.28516V5.60449C2.32617 5.52702 2.34668 5.48145 2.34668 5.46777ZM2.0459 5.91895V5.93262C2.06868 5.93262 2.0778 5.92122 2.07324 5.89844L2.06641 5.88477C2.04818 5.88932 2.04134 5.90072 2.0459 5.91895ZM1.4375 7.01953L1.45117 7.09473H1.47168L1.45801 7.0127L1.4375 7.01953ZM2.42188 7.2793C2.43099 7.2793 2.43555 7.28385 2.43555 7.29297C2.45833 7.2793 2.47428 7.27246 2.4834 7.27246C2.47884 7.24967 2.46745 7.24056 2.44922 7.24512C2.42643 7.25423 2.41732 7.26562 2.42188 7.2793ZM2.32617 7.2998C2.31706 7.34082 2.30339 7.36361 2.28516 7.36816H2.27148L2.26465 7.32031C2.26921 7.32031 2.28971 7.31348 2.32617 7.2998ZM3.7959 7.29297V7.30664C3.80501 7.32943 3.81868 7.33854 3.83691 7.33398L3.83008 7.32031C3.83008 7.29753 3.81868 7.28841 3.7959 7.29297ZM1.64941 7.74414L1.68359 7.75098L1.67676 7.70312C1.65853 7.71224 1.64941 7.72591 1.64941 7.74414ZM3.76855 7.42285V7.44336L3.80273 7.43652L3.7959 7.38867C3.77311 7.39323 3.764 7.40462 3.76855 7.42285ZM1.32129 7.8125L1.33496 7.9082H1.30762L1.29395 7.84668C1.29395 7.82389 1.30306 7.8125 1.32129 7.8125ZM1.31445 8.07227L1.32812 8.06543L1.3418 8.11328L1.29395 8.12012L1.28711 8.10645C1.28711 8.08366 1.29622 8.07227 1.31445 8.07227ZM1.69727 9.06348L1.72461 9.23438H1.73828C1.73828 9.21159 1.74284 9.2002 1.75195 9.2002C1.73828 9.19564 1.72461 9.14779 1.71094 9.05664L1.69727 9.06348ZM1.30078 9.41211L1.31445 9.49414L1.34863 9.4873L1.31445 9.41211H1.30078Z" fill="#2E2E2E"/>
<path d="M5.51855 3.44434H5.53223L5.55957 3.45801L5.5459 3.49902C5.55501 3.52181 5.55957 3.54688 5.55957 3.57422H5.58691L5.57324 3.5332V3.47852H5.60742C5.64388 3.47852 5.66667 3.6084 5.67578 3.86816L5.66211 3.94336C5.67122 3.96159 5.68034 4.02995 5.68945 4.14844H5.66211V4.18262H5.68945C5.67122 4.31934 5.65755 4.52441 5.64844 4.79785C5.69401 4.81608 5.7168 4.83431 5.7168 4.85254V4.89355C5.7168 4.98014 5.70768 5.09635 5.68945 5.24219L5.70312 5.33789C5.69401 5.36068 5.68945 5.37891 5.68945 5.39258V5.46777C5.67122 5.46777 5.65299 5.56576 5.63477 5.76172L5.64844 5.80273C5.64844 5.81641 5.64388 5.82324 5.63477 5.82324L5.64844 5.85742V5.8916C5.60742 5.8916 5.58691 5.97819 5.58691 6.15137C5.58691 6.18327 5.59375 6.20833 5.60742 6.22656L5.55957 6.43164C5.55957 6.44531 5.56413 6.45215 5.57324 6.45215C5.56413 6.54785 5.55501 6.60938 5.5459 6.63672L5.57324 6.65723C5.57324 6.63444 5.62109 6.58431 5.7168 6.50684C5.75326 6.36556 5.81934 6.25391 5.91504 6.17188C5.91504 6.08073 5.99023 5.9873 6.14062 5.8916C6.22266 5.78223 6.27507 5.72754 6.29785 5.72754L6.35254 5.74805C6.40723 5.69792 6.44824 5.67285 6.47559 5.67285L6.50293 5.69336C6.50293 5.66602 6.52344 5.63411 6.56445 5.59766L6.55078 5.55664H6.5918L6.57812 5.52246L6.63281 5.46777H6.70117C6.80143 5.24447 6.90169 5.13281 7.00195 5.13281C7.00195 5.11003 7.0293 5.08496 7.08398 5.05762C7.1569 5.06673 7.19336 5.0804 7.19336 5.09863L7.22754 5.07812H7.25488C7.25488 5.10091 7.26855 5.1123 7.2959 5.1123V5.13281L7.28223 5.16699L7.30957 5.15332H7.33691C7.33691 5.17611 7.34603 5.1875 7.36426 5.1875V5.22852C7.3278 5.23307 7.30957 5.2513 7.30957 5.2832C7.3278 5.28776 7.33691 5.29915 7.33691 5.31738C7.33691 5.35384 7.31868 5.37207 7.28223 5.37207V5.42676C7.33691 5.38118 7.37337 5.3584 7.3916 5.3584C7.25033 5.54069 7.15234 5.6569 7.09766 5.70703H7.08398L7.05664 5.69336C7.05664 5.69792 7.02246 5.75944 6.9541 5.87793C6.9541 5.91439 6.92676 5.94401 6.87207 5.9668C6.63965 6.1901 6.50749 6.30176 6.47559 6.30176C6.47559 6.28809 6.47103 6.28125 6.46191 6.28125V6.32227H6.4209L6.37988 6.28125L6.31152 6.39746H6.3252L6.35254 6.37695V6.39746L6.20898 6.60254C6.20898 6.62533 6.19076 6.63672 6.1543 6.63672L6.16797 6.67773C6.13151 6.70052 6.02897 6.86686 5.86035 7.17676C5.80111 7.17676 5.77148 7.21322 5.77148 7.28613V7.34082C5.7487 7.34082 5.72591 7.36133 5.70312 7.40234C5.70312 7.38867 5.69857 7.38184 5.68945 7.38184L5.64844 7.45703L5.67578 7.51172L5.70312 7.49121H5.74414C5.81706 7.49121 5.88314 7.54134 5.94238 7.6416C6.00163 7.6416 6.04492 7.69629 6.07227 7.80566H6.03809C6.10645 7.8877 6.15885 7.99935 6.19531 8.14062L6.33887 8.49609V8.5166L6.40723 8.49609C6.46647 8.64193 6.50977 8.71484 6.53711 8.71484C6.60091 8.71484 6.66927 8.76042 6.74219 8.85156C6.74219 8.81055 6.75358 8.79004 6.77637 8.79004H6.87207C7.08626 8.79004 7.30729 8.72168 7.53516 8.58496C7.55339 8.53939 7.60124 8.49154 7.67871 8.44141V8.4209H7.70605V8.47559H7.7334C7.7334 8.3571 7.81315 8.27051 7.97266 8.21582V8.23633L7.94531 8.29102V8.31152H7.95898C8.02279 8.27507 8.05924 8.25684 8.06836 8.25684C8.11849 8.27051 8.14355 8.28874 8.14355 8.31152H8.12305C8.17773 8.43457 8.22103 8.49609 8.25293 8.49609V8.53027C8.25293 8.5485 8.21647 8.5918 8.14355 8.66016L8.15723 8.70117V8.71484H8.12305V8.73535H8.14355C8.1709 8.73535 8.18457 8.71712 8.18457 8.68066C8.2028 8.68522 8.21191 8.69661 8.21191 8.71484C8.21191 8.72852 8.1276 8.81738 7.95898 8.98145C7.95898 8.99967 7.93848 9.02246 7.89746 9.0498C7.89746 9.02702 7.88835 9.01562 7.87012 9.01562C7.83822 9.0293 7.78809 9.09082 7.71973 9.2002C7.7653 9.16374 7.7972 9.14551 7.81543 9.14551V9.17969C7.66504 9.27995 7.57161 9.33008 7.53516 9.33008L7.50781 9.27539L7.37793 9.35059V9.37109H7.3916C7.43262 9.34375 7.46224 9.33008 7.48047 9.33008V9.38477C7.45312 9.38477 7.42806 9.39844 7.40527 9.42578H7.3916C7.38249 9.42578 7.37793 9.41895 7.37793 9.40527L7.35059 9.42578H7.30957C7.30046 9.42578 7.2959 9.41895 7.2959 9.40527C7.21842 9.4554 7.16602 9.48047 7.13867 9.48047H7.08398L6.98828 9.45996C6.98828 9.52376 6.90625 9.55566 6.74219 9.55566C6.68294 9.55566 6.61914 9.5306 6.55078 9.48047L6.52344 9.50098C6.40951 9.47363 6.35254 9.43034 6.35254 9.37109L6.3252 9.38477C6.1748 9.20703 6.09961 9.10221 6.09961 9.07031C6.07227 9.07031 6.0472 9.04525 6.02441 8.99512L5.99707 9.01562C5.9834 9.01562 5.95605 8.97233 5.91504 8.88574C5.92415 8.86296 5.92871 8.84473 5.92871 8.83105C5.91048 8.83105 5.89681 8.77409 5.8877 8.66016C5.86947 8.63281 5.83073 8.60775 5.77148 8.58496V8.55078H5.78516C5.80339 8.56445 5.81934 8.57129 5.83301 8.57129V8.53027C5.75553 8.37533 5.7168 8.28418 5.7168 8.25684H5.67578L5.64844 8.27051L5.60742 8.19531C5.50716 8.22721 5.42057 8.30924 5.34766 8.44141C5.29297 8.49609 5.25195 8.58724 5.22461 8.71484C5.20182 8.71484 5.16309 8.85156 5.1084 9.125C5.06738 9.125 5.01725 9.22982 4.95801 9.43945L4.98535 9.53516C4.96257 9.69466 4.9056 9.83138 4.81445 9.94531C4.80078 9.94531 4.78255 9.95671 4.75977 9.97949H4.70508L4.67773 9.96582C4.67773 9.98861 4.66634 10 4.64355 10H4.60254C4.57975 10 4.56608 9.97493 4.56152 9.9248L4.53418 9.94531C4.51139 9.91797 4.49772 9.9043 4.49316 9.9043C4.47493 9.91797 4.46126 9.9248 4.45215 9.9248L4.43164 9.89062V9.79492H4.41797C4.40885 9.80859 4.38607 9.81543 4.34961 9.81543C4.34961 9.77897 4.34049 9.73568 4.32227 9.68555C4.34961 9.38932 4.3724 9.24121 4.39062 9.24121C4.39974 9.264 4.4043 9.28223 4.4043 9.2959C4.42253 9.2959 4.45215 9.17057 4.49316 8.91992C4.53418 8.84245 4.57064 8.75586 4.60254 8.66016C4.61621 8.66016 4.65495 8.60547 4.71875 8.49609C4.73698 8.49609 4.74609 8.46419 4.74609 8.40039C4.74609 8.39128 4.74154 8.35482 4.73242 8.29102C4.76432 8.26823 4.80078 8.19303 4.8418 8.06543C4.85547 8.06543 4.88509 8.02214 4.93066 7.93555L4.91699 7.90137C4.91699 7.86947 4.93066 7.8125 4.95801 7.73047C4.94889 7.70768 4.94434 7.68945 4.94434 7.67578C4.98535 7.32943 5.03092 7.15625 5.08105 7.15625C5.09017 7.13346 5.09473 7.1084 5.09473 7.08105C5.0765 7.08105 5.06283 7.03776 5.05371 6.95117C5.06283 6.95117 5.06738 6.94661 5.06738 6.9375C5.05827 6.9375 5.05371 6.93066 5.05371 6.91699C5.07194 6.90332 5.08561 6.89648 5.09473 6.89648C5.09473 6.86914 5.09017 6.84408 5.08105 6.82129C5.09017 6.78483 5.09928 6.7666 5.1084 6.7666C5.1403 6.79395 5.16536 6.80762 5.18359 6.80762V6.69141H5.15625C5.17448 6.62305 5.19271 6.5 5.21094 6.32227L5.19727 6.22656C5.19727 6.20378 5.20182 6.19238 5.21094 6.19238L5.19727 6.0625V5.87793C5.19727 5.84147 5.21549 5.75488 5.25195 5.61816C5.23372 5.61816 5.22461 5.60449 5.22461 5.57715H5.25195V5.50195H5.22461V5.48828C5.23372 5.48828 5.2474 5.48145 5.26562 5.46777L5.25195 5.42676C5.25195 5.3903 5.25651 5.37207 5.26562 5.37207C5.24284 5.12598 5.22917 5.00293 5.22461 5.00293H5.21094V4.98242C5.21094 4.97331 5.21549 4.96875 5.22461 4.96875L5.21094 4.92773C5.22005 4.89128 5.22917 4.87305 5.23828 4.87305L5.22461 4.83887V4.70215C5.22461 4.69303 5.22917 4.68848 5.23828 4.68848L5.19727 4.37402L5.21094 4.33301C5.20182 4.31022 5.19727 4.29199 5.19727 4.27832H5.21094L5.19727 4.24414V4.07324H5.22461V3.97754C5.22917 3.90462 5.24284 3.86816 5.26562 3.86816C5.26562 3.88184 5.27018 3.88867 5.2793 3.88867V3.84766H5.25195V3.83398H5.2793V3.79297C5.25195 3.79297 5.22917 3.7679 5.21094 3.71777H5.23828C5.23828 3.69499 5.22461 3.68359 5.19727 3.68359C5.21549 3.65169 5.22461 3.61979 5.22461 3.58789L5.25195 3.6084C5.26562 3.52181 5.29753 3.47852 5.34766 3.47852L5.36816 3.51953L5.43652 3.45801C5.45475 3.46257 5.46387 3.47624 5.46387 3.49902C5.50033 3.48991 5.51855 3.47168 5.51855 3.44434ZM5.68945 3.83398C5.70768 3.83398 5.72135 3.88867 5.73047 3.99805H5.7168C5.69857 3.99805 5.68945 3.98665 5.68945 3.96387V3.83398ZM5.66211 4.83887V4.94824H5.67578C5.67578 4.9209 5.68034 4.90723 5.68945 4.90723C5.68034 4.889 5.67578 4.86621 5.67578 4.83887H5.66211ZM6.74219 5.42676V5.46777H6.77637C6.77637 5.44954 6.79004 5.42448 6.81738 5.39258C6.78548 5.41536 6.76042 5.42676 6.74219 5.42676ZM7.22754 5.44727L7.20703 5.48828C7.22526 5.47461 7.24121 5.46777 7.25488 5.46777V5.44727H7.22754ZM6.61914 5.54297H6.63281C6.65104 5.54297 6.66016 5.5293 6.66016 5.50195H6.64648C6.62826 5.50651 6.61914 5.52018 6.61914 5.54297ZM5.14258 5.9873H5.16992V6.09668H5.14258V5.9873ZM6.53711 6.21289H6.56445C6.61914 6.16276 6.65104 6.11263 6.66016 6.0625H6.64648C6.63281 6.0625 6.59635 6.11263 6.53711 6.21289ZM6.11328 6.54785C6.11328 6.57064 6.1224 6.58203 6.14062 6.58203L6.16797 6.52734H6.1543C6.13607 6.54102 6.1224 6.54785 6.11328 6.54785ZM5.90137 6.87598C5.90137 6.89876 5.89225 6.92383 5.87402 6.95117H5.8877L5.92871 6.87598H5.90137ZM5.25195 8.49609L5.22461 8.55078V8.57129C5.2474 8.53483 5.26562 8.5166 5.2793 8.5166V8.49609H5.25195ZM7.57617 8.62598H7.58984C7.61263 8.59863 7.63086 8.58496 7.64453 8.58496V8.57129H7.63086C7.5944 8.58952 7.57617 8.60775 7.57617 8.62598ZM6.44824 8.68066V8.71484L6.47559 8.73535H6.48926V8.71484C6.47103 8.71484 6.46191 8.70345 6.46191 8.68066H6.44824ZM8.04102 8.96094H8.05469C8.05469 8.98372 8.04557 8.99512 8.02734 8.99512H8.01367C8.01823 8.97233 8.02734 8.96094 8.04102 8.96094Z" fill="#2E2E2E"/>
<path d="M10.5977 4.64746C10.6296 4.63835 10.6683 4.65202 10.7139 4.68848C10.7275 4.6748 10.7412 4.66797 10.7549 4.66797C10.8506 4.70443 10.8984 4.72721 10.8984 4.73633L10.9053 4.77051L10.8711 4.93457C10.8848 4.9528 10.8916 4.96875 10.8916 4.98242L10.8848 5.0166V5.03711L10.8984 5.03027C10.8939 5.01204 10.9053 4.95964 10.9326 4.87305L10.9668 4.86621C10.944 5.19434 10.8643 5.53841 10.7275 5.89844C10.7412 5.91667 10.7503 5.93262 10.7549 5.94629C10.7594 5.98275 10.7344 6.08529 10.6797 6.25391C10.6569 6.30859 10.6478 6.34961 10.6523 6.37695L10.6387 6.38379L10.6318 6.34961H10.6182L10.625 6.37012C10.6341 6.38835 10.641 6.4043 10.6455 6.41797L10.6182 6.43848C10.6182 6.4248 10.6113 6.42025 10.5977 6.4248C10.6022 6.45215 10.5931 6.48861 10.5703 6.53418L10.5908 6.56152V6.58203L10.5635 6.58887L10.584 6.61621C10.5384 6.76204 10.4997 6.83952 10.4678 6.84863C10.445 6.85319 10.4313 6.93066 10.4268 7.08105C10.4176 7.08105 10.4154 7.08789 10.4199 7.10156L10.4404 7.16309C10.3447 7.44108 10.3288 7.78516 10.3926 8.19531C10.3926 8.26367 10.3857 8.30013 10.3721 8.30469L10.3926 8.33203L10.4062 8.37988L10.3721 8.38672L10.3926 8.50293C10.3926 8.5166 10.388 8.52344 10.3789 8.52344C10.3926 8.54167 10.4131 8.6123 10.4404 8.73535C10.445 8.73535 10.4655 8.72624 10.502 8.70801C10.5202 8.71712 10.5339 8.7194 10.543 8.71484V8.70117L10.5771 8.70801L10.6318 8.70117L10.6113 8.66699L11.1787 8.31152L11.2266 8.30469L11.2197 8.28418H11.2471L11.2539 8.31152L11.2061 8.39355L11.2334 8.38672C11.2653 8.38216 11.279 8.36165 11.2744 8.3252L11.3018 8.33887C11.3564 8.27051 11.3929 8.23405 11.4111 8.22949C11.4111 8.24316 11.4157 8.24772 11.4248 8.24316C11.4248 8.22038 11.4339 8.20898 11.4521 8.20898L11.4316 8.1748L11.4248 8.14062C11.5068 8.06771 11.5615 8.02897 11.5889 8.02441C11.6208 8.02897 11.6367 8.03581 11.6367 8.04492C11.7142 8.01758 11.7461 7.96517 11.7324 7.8877C11.7461 7.8877 11.8372 7.81934 12.0059 7.68262C12.2109 7.50033 12.4001 7.35221 12.5732 7.23828V7.25195C12.5778 7.27474 12.5664 7.28841 12.5391 7.29297V7.31348L12.5527 7.30664C12.5892 7.28385 12.6074 7.26335 12.6074 7.24512C12.5846 7.24967 12.5732 7.24056 12.5732 7.21777L12.6143 7.21094L12.6211 7.24512C12.653 7.18587 12.7441 7.13346 12.8945 7.08789C12.8945 7.07422 12.8991 7.06738 12.9082 7.06738L12.9219 7.06055C12.972 7.11979 13.0016 7.14941 13.0107 7.14941L12.9834 7.23828C12.988 7.26107 13.0085 7.27018 13.0449 7.26562L13.0518 7.29297C13.0153 7.30208 12.988 7.35449 12.9697 7.4502L12.9424 7.45703L12.9355 7.42285H12.9219L12.9287 7.45703C12.9378 7.45703 12.9424 7.46159 12.9424 7.4707C12.9196 7.47526 12.8945 7.50488 12.8672 7.55957L12.7988 7.53906C12.7533 7.56641 12.7168 7.61426 12.6895 7.68262C12.653 7.70085 12.6325 7.70996 12.6279 7.70996L12.6348 7.72363H12.6484L12.7168 7.68945C12.6667 7.74414 12.6416 7.77832 12.6416 7.79199L12.6279 7.79883L12.5938 7.78516L12.6074 7.75098L12.6006 7.73047L12.5869 7.7373C12.5094 7.81934 12.4616 7.86263 12.4434 7.86719V7.8877L12.4639 7.88086L12.5322 7.83301V7.84668L12.416 7.99707C12.4069 7.99707 12.4023 7.99251 12.4023 7.9834C12.3568 8.02441 12.3203 8.0472 12.293 8.05176L12.2588 8.04492L12.2656 8.11328L12.2246 8.12012L12.2178 8.08594H12.2041L12.2109 8.12012C12.2201 8.12012 12.2246 8.12467 12.2246 8.13379L12.2109 8.14062L12.1836 8.12695C11.9785 8.36393 11.8053 8.52572 11.6641 8.6123C11.6686 8.62142 11.6755 8.62598 11.6846 8.62598C11.6891 8.67611 11.6367 8.72624 11.5273 8.77637L11.5068 8.74902L11.5137 8.71484L11.4727 8.72168C11.4453 8.7627 11.4225 8.7832 11.4043 8.7832C11.4089 8.80599 11.4248 8.8151 11.4521 8.81055C11.4567 8.82878 11.4316 8.86296 11.377 8.91309H11.2881C11.2653 8.91764 11.1559 8.9974 10.96 9.15234H10.9463V9.13867L10.9189 9.15918L10.8574 9.17285L10.8232 9.15918C10.8324 9.19564 10.7959 9.2207 10.7139 9.23438V9.2207L10.6865 9.22754L10.707 9.25488L10.6182 9.30957L10.5908 9.2959C10.5726 9.30957 10.5589 9.31868 10.5498 9.32324C10.5133 9.30501 10.4814 9.29818 10.4541 9.30273L10.3789 9.32324V9.28906C10.3835 9.28451 10.4017 9.27311 10.4336 9.25488C10.4518 9.264 10.4678 9.26855 10.4814 9.26855L10.4883 9.22754L10.2969 9.26855C10.2467 9.20931 10.167 9.15007 10.0576 9.09082C10.0576 9.10449 10.0531 9.11133 10.0439 9.11133C10.0439 9.09766 10.0394 9.0931 10.0303 9.09766C10.0257 9.08398 10.0303 9.07715 10.0439 9.07715C10.0166 8.97689 9.9847 8.90853 9.94824 8.87207V8.74902C9.92546 8.75358 9.91406 8.74447 9.91406 8.72168L9.87988 8.72852L9.90039 8.7627L9.90723 8.81055C9.88444 8.8151 9.85938 8.84928 9.83203 8.91309V8.87891L9.79785 8.88574C9.80241 8.90397 9.77734 8.93815 9.72266 8.98828L9.68848 9.06348L9.70898 9.09082C9.69987 9.14095 9.67253 9.21615 9.62695 9.31641L9.64062 9.35059C9.52214 9.57845 9.44466 9.69694 9.4082 9.70605L9.42871 9.7334C9.39681 9.8291 9.33301 9.90658 9.2373 9.96582C9.24186 9.98405 9.18034 10.0365 9.05273 10.123V10.1436C9.02539 10.1253 9.00944 10.1162 9.00488 10.1162C9.00944 10.1299 8.99805 10.1504 8.9707 10.1777C8.96615 10.1641 8.95931 10.1595 8.9502 10.1641C8.95475 10.1732 8.9502 10.1777 8.93652 10.1777V10.1504L8.96387 10.1436L8.95703 10.1094C8.94792 10.1094 8.93197 10.1071 8.90918 10.1025C8.91829 10.1436 8.91374 10.1663 8.89551 10.1709L8.86133 10.1777C8.8112 10.1641 8.78385 10.1527 8.7793 10.1436L8.75879 10.1641L8.73828 10.1709C8.73828 10.1481 8.69727 10.1322 8.61523 10.123L8.6084 10.1094L8.58105 10.1299L8.55371 10.1367C8.43978 10.0365 8.37598 9.95215 8.3623 9.88379L8.31445 9.5625C8.30534 9.51693 8.30078 9.4554 8.30078 9.37793C8.28711 9.3597 8.27799 9.32552 8.27344 9.27539C8.30078 9.27083 8.30306 9.19564 8.28027 9.0498L8.27344 9.00195L8.20508 8.96094C8.19141 8.86979 8.20508 8.78776 8.24609 8.71484L8.22559 8.68066L8.21875 8.66699C8.21875 8.65332 8.22331 8.64648 8.23242 8.64648L8.21191 8.6123C8.21191 8.22493 8.22331 8.02897 8.24609 8.02441L8.22559 7.99023C8.23926 7.96289 8.24609 7.88086 8.24609 7.74414L8.27344 7.7373C8.26888 7.77832 8.27116 7.81934 8.28027 7.86035L8.30762 7.86719C8.30762 7.85352 8.31445 7.83073 8.32812 7.79883L8.30078 7.7168C8.28711 7.63021 8.31901 7.53678 8.39648 7.43652L8.37598 7.40918C8.37598 7.40007 8.42155 7.3431 8.5127 7.23828L8.51953 7.25879L8.54688 7.23828L8.58789 7.22461C8.75651 7.32031 8.84082 7.37956 8.84082 7.40234C8.87728 7.43424 8.89779 7.4707 8.90234 7.51172L8.91602 7.57324C8.83398 7.70996 8.79069 7.91504 8.78613 8.18848C8.7679 8.33887 8.77474 8.52116 8.80664 8.73535L8.7793 8.74219L8.76562 8.67383L8.75195 8.68066L8.7793 8.83105L8.81348 8.87207C8.82259 9.00879 8.81803 9.07943 8.7998 9.08398C8.80436 9.09766 8.8112 9.11361 8.82031 9.13184C8.82943 9.25033 8.83854 9.34147 8.84766 9.40527L8.85449 9.45312C8.90007 9.42122 9.02995 9.21159 9.24414 8.82422C9.3125 8.66016 9.36035 8.57585 9.3877 8.57129C9.3877 8.5804 9.39225 8.58496 9.40137 8.58496V8.56445C9.38314 8.56901 9.37174 8.5599 9.36719 8.53711C9.41732 8.35482 9.50846 8.15885 9.64062 7.94922L9.62012 7.91504L9.66113 7.87402C9.66113 7.8877 9.66569 7.89225 9.6748 7.8877C9.6748 7.83757 9.70215 7.74642 9.75684 7.61426L9.85254 6.97168C9.84342 6.97624 9.83659 6.97168 9.83203 6.95801L9.85938 6.9375C9.85938 6.92383 9.85482 6.91927 9.8457 6.92383C9.8776 6.73698 9.89128 6.62988 9.88672 6.60254L9.9209 6.61621L9.91406 6.5957L9.89355 6.56836L9.92773 6.56152L9.90039 6.47949C9.94141 6.07389 10.028 5.72754 10.1602 5.44043L10.167 5.47461L10.1943 5.4541L10.2217 5.46094L10.2148 5.37891L10.1602 5.44043V5.42676C10.1829 5.32194 10.2376 5.21712 10.3242 5.1123C10.3197 4.91634 10.3584 4.81152 10.4404 4.79785C10.486 4.70671 10.5384 4.65658 10.5977 4.64746ZM10.3652 4.98242C10.3652 5.00065 10.3584 5.02572 10.3447 5.05762V5.07812L10.3584 5.07129C10.3584 5.05306 10.3652 5.02799 10.3789 4.99609V4.98242H10.3652ZM9.86621 7.05371C9.85254 7.11751 9.84798 7.15853 9.85254 7.17676L9.91406 7.16992C9.90495 7.11979 9.90495 7.08333 9.91406 7.06055C9.90039 7.0651 9.88444 7.06283 9.86621 7.05371ZM10.4678 6.9375C10.486 6.9375 10.4974 6.94661 10.502 6.96484C10.4928 7.01042 10.4814 7.03548 10.4678 7.04004V6.9375ZM9.47656 9.45312C9.48112 9.47591 9.48112 9.4987 9.47656 9.52148V9.53516H9.49023C9.48568 9.51693 9.49707 9.48503 9.52441 9.43945L9.47656 9.45312ZM9.42871 9.63086L9.43555 9.65137L9.44922 9.64453C9.44466 9.6263 9.4515 9.60352 9.46973 9.57617L9.46289 9.55566C9.44922 9.56022 9.43783 9.58529 9.42871 9.63086ZM8.62891 10.2119L8.66992 10.1982L8.67676 10.2324L8.62891 10.2393V10.2119Z" fill="#2E2E2E"/>
<path d="M13.9062 8.96094H13.9609C13.9609 9.00651 13.9723 9.0293 13.9951 9.0293C13.9997 9.00651 14.0111 8.99512 14.0293 8.99512C14.0521 9.00879 14.0771 9.01562 14.1045 9.01562V9.0293L14.084 9.07031C14.1615 9.07031 14.2275 9.12956 14.2822 9.24805C14.2822 9.27539 14.2891 9.29818 14.3027 9.31641C14.2799 9.40299 14.2367 9.49414 14.1729 9.58984C14.1729 9.64909 14.1615 9.67871 14.1387 9.67871L14.1592 9.71289V9.74707L14.1387 9.78809C14.1615 9.78809 14.1729 9.79948 14.1729 9.82227V9.85645H14.1592L14.1182 9.83594C14.0954 9.86784 14.084 9.89974 14.084 9.93164H14.0703L14.0293 9.91113C14.0111 9.95671 13.9928 9.97949 13.9746 9.97949C13.9609 9.93392 13.945 9.91113 13.9268 9.91113C13.9268 9.94759 13.8903 9.97721 13.8174 10H13.7832V9.94531L13.7422 9.96582C13.7194 9.96582 13.708 9.94759 13.708 9.91113L13.6738 9.93164H13.6533C13.4756 9.77669 13.3867 9.66732 13.3867 9.60352C13.3867 9.48958 13.4414 9.41211 13.5508 9.37109C13.6009 9.2526 13.6488 9.19336 13.6943 9.19336V9.17285H13.6533V9.13867C13.7354 9.10221 13.8197 9.04297 13.9062 8.96094ZM13.7969 8.82422V8.93359C13.8333 8.91536 13.8607 8.90625 13.8789 8.90625V8.85156C13.8607 8.85156 13.8333 8.84245 13.7969 8.82422ZM14.6172 9.15234V9.23438C14.6536 9.23438 14.6719 9.21615 14.6719 9.17969V9.15234H14.6172ZM14.4258 9.64453V9.67188C14.444 9.70833 14.4531 9.73568 14.4531 9.75391H14.4805V9.72656C14.4622 9.6901 14.4531 9.66276 14.4531 9.64453H14.4258Z" fill="#2E2E2E"/>
<path d="M20.0449 4.39453L20.0654 4.3877C20.0837 4.3877 20.1406 4.42188 20.2363 4.49023C20.3639 4.50846 20.4551 4.53353 20.5098 4.56543L20.5166 4.5791L20.5098 4.60645C20.5462 4.59733 20.5804 4.61328 20.6123 4.6543L20.626 4.64746V4.70215L20.6533 4.72266C20.6488 4.74089 20.6488 4.75911 20.6533 4.77734L20.6602 4.79102L20.7012 4.81836C20.7832 5.06901 20.7946 5.19889 20.7354 5.20801C20.7354 5.19889 20.7285 5.19661 20.7148 5.20117L20.7217 5.2627C20.7445 5.2627 20.7581 5.26953 20.7627 5.2832C20.7354 5.37435 20.724 5.42448 20.7285 5.43359C20.7513 5.43359 20.765 5.44043 20.7695 5.4541L20.7764 5.46777C20.7171 5.47689 20.6829 5.57715 20.6738 5.76855C20.5964 5.78223 20.5485 5.89388 20.5303 6.10352C20.5029 6.10807 20.487 6.12858 20.4824 6.16504L20.4893 6.19922L20.5166 6.21973C20.4938 6.22428 20.487 6.24023 20.4961 6.26758L20.4619 6.26074C20.4163 6.35645 20.3867 6.40658 20.373 6.41113V6.39746L20.3799 6.37012L20.373 6.35645L20.3594 6.36328C20.3639 6.38151 20.3457 6.39746 20.3047 6.41113C20.3092 6.4248 20.3594 6.44987 20.4551 6.48633V6.5L20.4277 6.50684L20.4414 6.54102L20.5098 6.5C20.5781 6.5 20.6146 6.50684 20.6191 6.52051C20.61 6.52051 20.6077 6.52507 20.6123 6.53418C20.6898 6.52962 20.7354 6.54329 20.749 6.5752L20.7627 6.56836C20.7581 6.55924 20.7581 6.54557 20.7627 6.52734C20.8083 6.51823 20.8516 6.54102 20.8926 6.5957L20.9268 6.58887L20.9199 6.56836C20.9655 6.55469 21.0339 6.63672 21.125 6.81445C21.1478 6.8099 21.1637 6.82129 21.1729 6.84863C21.1592 6.87598 21.1569 6.90104 21.166 6.92383L21.1865 6.97852C21.1911 7.0013 21.2093 7.02409 21.2412 7.04688C21.264 7.12891 21.264 7.1722 21.2412 7.17676C21.2367 7.16764 21.2275 7.16536 21.2139 7.16992L21.2275 7.2998C21.2321 7.30892 21.2389 7.3112 21.248 7.30664L21.2549 7.375L21.3027 7.51172C21.2708 7.54818 21.2594 7.58008 21.2686 7.60742L21.2754 7.63477L21.3027 7.61426C21.321 7.66439 21.346 7.68717 21.3779 7.68262L21.4121 7.67578C21.403 7.65299 21.4235 7.62565 21.4736 7.59375L21.5078 7.60059C21.4941 7.56413 21.5944 7.48665 21.8086 7.36816C21.9681 7.22233 22.0911 7.12663 22.1777 7.08105L22.2119 7.01953C22.2028 7.01953 22.196 7.01725 22.1914 7.0127L22.2051 7.00586L22.2461 7.0127C22.2643 6.99902 22.278 6.99219 22.2871 6.99219V6.97852L22.2529 6.98535L22.2461 6.95801H22.2598L22.3145 6.97168C22.319 6.94434 22.4215 6.83496 22.6221 6.64355C22.6175 6.62988 22.6699 6.58431 22.7793 6.50684L22.7998 6.5L22.834 6.50684L22.8271 6.47949L22.957 6.45898C23.0026 6.44987 23.0505 6.41797 23.1006 6.36328C23.1234 6.35872 23.137 6.36328 23.1416 6.37695L23.1348 6.4043C23.153 6.40885 23.1758 6.40885 23.2031 6.4043L23.2305 6.47949C23.2305 6.48861 23.2259 6.49316 23.2168 6.49316L23.2373 6.52051L23.2441 6.52734L23.21 6.53418L23.2031 6.51367H23.1895C23.2031 6.55469 23.1689 6.61165 23.0869 6.68457L23.1348 6.6709L23.2715 6.56152C23.2943 6.56152 23.3079 6.56836 23.3125 6.58203L23.0049 6.8418L22.9707 6.84863V6.8418C22.9661 6.83268 23.0094 6.78711 23.1006 6.70508C23.0824 6.69141 23.071 6.68001 23.0664 6.6709C22.8613 6.91243 22.638 7.13574 22.3965 7.34082L22.417 7.36133C22.4124 7.40234 22.3988 7.42741 22.376 7.43652L22.3623 7.44336C22.3486 7.44336 22.3418 7.4388 22.3418 7.42969C22.196 7.55729 22.1025 7.62565 22.0615 7.63477L22.0547 7.60742L22.0615 7.58008L22.0273 7.58691C21.9635 7.62337 21.9157 7.66895 21.8838 7.72363L21.8906 7.75098L21.9248 7.74414C21.984 7.70768 22.0091 7.68034 22 7.66211L22.0342 7.65527L22.041 7.66211C21.9863 7.74414 21.8838 7.81934 21.7334 7.8877C21.738 7.89681 21.6309 8.01986 21.4121 8.25684C21.3848 8.31608 21.3734 8.35482 21.3779 8.37305L21.3438 8.36621L21.3643 8.38672C21.4007 8.48698 21.3916 8.62142 21.3369 8.79004L21.3232 8.75586L21.2959 8.76953L21.2822 8.74902H21.2686L21.2754 8.77637C21.2891 8.77181 21.2959 8.77409 21.2959 8.7832C21.2731 8.78776 21.2594 8.84928 21.2549 8.96777H21.2412L21.2686 8.98828C21.2731 9.01562 21.2549 9.03385 21.2139 9.04297L21.2412 9.06348L21.248 9.09766C21.2298 9.10221 21.2207 9.10905 21.2207 9.11816L21.248 9.13867C21.2435 9.1569 21.2435 9.17513 21.248 9.19336C21.2617 9.1888 21.2686 9.19108 21.2686 9.2002C21.2367 9.20931 21.2048 9.33236 21.1729 9.56934C21.1774 9.58301 21.1683 9.59212 21.1455 9.59668C21.1637 9.61035 21.1751 9.62174 21.1797 9.63086C21.1523 9.72656 21.1318 9.78353 21.1182 9.80176C21.1318 9.81543 21.141 9.82682 21.1455 9.83594C21.1227 9.84049 21.1068 9.8929 21.0977 9.99316L21.0635 10.0137L21.0566 9.98633L21.043 9.99316C21.0521 10.016 21.0452 10.0296 21.0225 10.0342L21.0498 10.0547C21.0498 10.0638 21.0452 10.0684 21.0361 10.0684L21.0635 10.0957L21.0703 10.1299C21.0384 10.1481 21.0202 10.1572 21.0156 10.1572L21.0361 10.2188L21.0635 10.1982L21.0703 10.2119C21.0703 10.221 21.0658 10.2256 21.0566 10.2256C21.0931 10.2666 21.1159 10.2985 21.125 10.3213L21.0771 10.3965L21.1045 10.417C21.0908 10.417 21.0749 10.4238 21.0566 10.4375L21.084 10.458C21.0658 10.5081 21.0612 10.5446 21.0703 10.5674L21.0361 10.5605C21.0225 10.679 21.0088 10.7406 20.9951 10.7451L21.0293 10.7998L21.043 10.8408C21.0111 10.891 20.9974 10.9456 21.002 11.0049L21.0225 11.0322C20.9814 11.2373 20.9587 11.3877 20.9541 11.4834L20.9814 11.5039C20.9632 11.5495 20.9564 11.5814 20.9609 11.5996C20.9746 11.5951 20.9814 11.5973 20.9814 11.6064L20.9678 11.6133L20.9951 11.6338V11.6475C20.9997 11.8115 20.9906 11.8981 20.9678 11.9072C20.9678 11.9118 20.9746 11.9141 20.9883 11.9141C20.9473 12.3105 20.8857 12.5179 20.8037 12.5361C20.7718 12.5726 20.7422 12.6387 20.7148 12.7344C20.6374 12.7891 20.5622 12.8232 20.4893 12.8369L20.4961 12.8643L20.4482 12.8711C20.4391 12.8757 20.4323 12.8734 20.4277 12.8643L20.4004 12.8779L20.3662 12.8848C20.2021 12.9076 20.0358 12.8802 19.8672 12.8027L19.8398 12.7822L19.8535 12.7549C19.8307 12.7594 19.8171 12.7526 19.8125 12.7344C19.8307 12.7298 19.8376 12.7207 19.833 12.707C19.7464 12.6797 19.6803 12.6706 19.6348 12.6797C19.5801 12.6569 19.5186 12.6159 19.4502 12.5566C19.3226 12.502 19.2132 12.4222 19.1221 12.3174L19.1562 12.3242V12.3105C19.1243 12.2832 19.1016 12.2695 19.0879 12.2695C19.0924 12.2786 19.0879 12.2855 19.0742 12.29C18.9648 12.2217 18.8236 12.0645 18.6504 11.8184C18.6595 11.8184 18.6618 11.8138 18.6572 11.8047C18.6481 11.8047 18.6413 11.8001 18.6367 11.791C18.6458 11.791 18.6595 11.7751 18.6777 11.7432L18.6504 11.7227L18.6162 11.6406C18.5843 11.6452 18.5615 11.627 18.5479 11.5859L18.582 11.5791L18.5752 11.5518L18.541 11.5586L18.5342 11.5381L18.5957 11.5244L18.6025 11.5381C18.598 11.5563 18.5957 11.57 18.5957 11.5791L18.6299 11.5723L18.6094 11.5107C18.5319 11.4606 18.4909 11.4287 18.4863 11.415C18.4043 11.1735 18.4271 10.9434 18.5547 10.7246C18.5547 10.7155 18.557 10.7018 18.5615 10.6836C18.5524 10.6836 18.5456 10.679 18.541 10.6699C18.5638 10.6654 18.6003 10.6061 18.6504 10.4922C18.6914 10.4831 18.7096 10.4512 18.7051 10.3965C18.8099 10.3372 18.8828 10.2484 18.9238 10.1299C19.1471 9.87012 19.2952 9.67643 19.3682 9.54883C19.4001 9.54427 19.4798 9.45768 19.6074 9.28906L19.6621 9.30273C19.7624 9.21159 19.8262 9.14551 19.8535 9.10449L19.8672 9.13184L20.0244 8.97461L19.9971 8.9541L19.9902 8.94043H20.0107C20.0335 8.94499 20.0495 8.94499 20.0586 8.94043L20.0381 8.91992L20.0312 8.90625C20.0267 8.89714 20.0426 8.87663 20.0791 8.84473L20.1201 8.85156C20.1156 8.84245 20.1406 8.8151 20.1953 8.76953H20.2432C20.2614 8.74674 20.2682 8.72852 20.2637 8.71484L20.2979 8.72168C20.2933 8.70801 20.3343 8.67383 20.4209 8.61914L20.4277 8.5918C20.373 8.62826 20.3343 8.64876 20.3115 8.65332C20.307 8.63965 20.4049 8.52344 20.6055 8.30469H20.6396C20.7035 8.22721 20.7331 8.17708 20.7285 8.1543H20.7422L20.7832 8.16113L20.7764 7.69629C20.7581 7.68262 20.7467 7.66667 20.7422 7.64844C20.7376 7.63932 20.7422 7.63477 20.7559 7.63477L20.7285 7.61426L20.667 7.43652C20.6624 7.43197 20.667 7.42741 20.6807 7.42285L20.6533 7.40234L20.5371 7.06738L20.5166 7.07422C20.4574 7.15169 20.3776 7.23828 20.2773 7.33398C20.291 7.32943 20.2979 7.33171 20.2979 7.34082L20.127 7.5459H20.0928C20.0973 7.55046 20.0928 7.55501 20.0791 7.55957L20.1064 7.58008V7.59375C20.0472 7.64844 20.0199 7.68034 20.0244 7.68945C20.0335 7.72591 19.9948 7.83073 19.9082 8.00391C19.8991 8.10417 19.8467 8.1862 19.751 8.25L19.71 8.24316L19.6621 8.25684C19.5026 8.26595 19.4115 8.23633 19.3887 8.16797H19.3682L19.375 8.19531H19.3613C19.3385 8.19987 19.3249 8.19303 19.3203 8.1748C19.2975 8.09277 19.2998 8.04948 19.3271 8.04492L19.2861 7.9834L19.2793 7.92188H19.2656C19.2428 7.93099 19.236 7.94238 19.2451 7.95605C19.2542 7.9515 19.2611 7.95378 19.2656 7.96289L19.2314 7.9834L19.2178 7.93555C19.2132 7.92643 19.2246 7.91048 19.252 7.8877L19.2246 7.86719C19.2474 7.62565 19.2793 7.50033 19.3203 7.49121C19.3704 7.45931 19.4046 7.42057 19.4229 7.375L19.416 7.36133C19.4115 7.34766 19.3932 7.3431 19.3613 7.34766C19.3841 7.19271 19.4183 7.11068 19.4639 7.10156C19.4867 7.10612 19.5049 7.10612 19.5186 7.10156L19.4912 7.08105V7.06738C19.5003 7.06738 19.5072 7.07194 19.5117 7.08105C19.5299 7.0765 19.555 7.03092 19.5869 6.94434L19.5801 6.93066C19.5618 6.93522 19.5459 6.97396 19.5322 7.04688H19.5186C19.4958 7.05143 19.4821 7.04688 19.4775 7.0332C19.5049 6.96029 19.5664 6.85775 19.6621 6.72559C19.6393 6.65723 19.6986 6.59342 19.8398 6.53418L19.7852 6.46582C19.9948 5.90983 20.0905 5.60677 20.0723 5.55664H20.127C20.1452 5.51107 20.152 5.47917 20.1475 5.46094C20.1292 5.44727 20.1178 5.43587 20.1133 5.42676L20.1543 5.43359L20.1475 5.41992L20.1201 5.39941C20.1156 5.31283 20.1247 5.26725 20.1475 5.2627C20.1475 5.27181 20.1543 5.27409 20.168 5.26953L20.1611 5.2627L20.1201 5.20117C20.1429 5.19661 20.152 5.18522 20.1475 5.16699L20.1201 5.14648C20.1201 5.07357 20.1156 5.02572 20.1064 5.00293L20.0791 4.98242C20.0882 4.96875 20.0882 4.9528 20.0791 4.93457H20.0107C19.7783 5.01204 19.6279 5.08268 19.5596 5.14648C19.5505 5.14648 19.5436 5.14193 19.5391 5.13281V5.11914C19.4798 5.14193 19.432 5.15788 19.3955 5.16699L19.416 5.1875L19.4023 5.22852H19.416C19.4115 5.2194 19.416 5.21257 19.4297 5.20801L19.4365 5.23535C19.4411 5.24902 19.4297 5.26497 19.4023 5.2832H19.3818L19.3682 5.24902C19.1221 5.50879 19.0195 5.69336 19.0605 5.80273C19.0423 5.80729 19.0423 5.83919 19.0605 5.89844L19.0742 5.94629L19.2246 5.91895C19.2337 5.94629 19.2702 5.9554 19.334 5.94629L19.3408 5.95996C19.3226 5.96452 19.3158 5.97363 19.3203 5.9873C19.334 5.98275 19.3659 6.00781 19.416 6.0625C19.3978 6.07617 19.3773 6.08529 19.3545 6.08984C19.4046 6.10807 19.4388 6.13997 19.457 6.18555C19.4661 6.21289 19.4274 6.2334 19.3408 6.24707V6.26074C19.4092 6.24707 19.4434 6.24479 19.4434 6.25391L19.4707 6.27441L19.4434 6.29492L19.2451 6.33594C19.2269 6.34049 19.2201 6.34961 19.2246 6.36328L19.1084 6.37695L19.0264 6.4043C18.8805 6.42253 18.8008 6.41341 18.7871 6.37695C18.8008 6.3724 18.8053 6.36556 18.8008 6.35645C18.7324 6.36556 18.6823 6.35417 18.6504 6.32227L18.6367 6.28809C18.6139 6.29264 18.6003 6.28581 18.5957 6.26758L18.6025 6.24023L18.5273 6.17871L18.5205 6.15137L18.5273 6.12402C18.5046 6.12858 18.4909 6.12174 18.4863 6.10352L18.4727 6.06934C18.4635 6.05111 18.4749 5.9873 18.5068 5.87793L18.4863 5.85059C18.4727 5.82324 18.484 5.77311 18.5205 5.7002C18.484 5.70931 18.4635 5.70475 18.459 5.68652L18.4521 5.65918C18.4658 5.63184 18.484 5.56803 18.5068 5.46777C18.5023 5.45866 18.4954 5.4541 18.4863 5.4541C18.4772 5.43132 18.5638 5.31738 18.7461 5.1123L18.8896 5.03027C18.8942 5.03483 18.901 5.03711 18.9102 5.03711L18.9307 4.99609H18.9854L18.958 4.97559C18.9489 4.94368 18.9876 4.90495 19.0742 4.85938C19.0605 4.81836 19.0879 4.7819 19.1562 4.75H19.1973C19.2155 4.74089 19.2292 4.73405 19.2383 4.72949V4.71582L19.2041 4.72266C19.1995 4.71354 19.236 4.68848 19.3135 4.64746L19.3545 4.6543C19.4593 4.60872 19.5277 4.57227 19.5596 4.54492C19.5687 4.54492 19.5755 4.54948 19.5801 4.55859C19.6257 4.52214 19.6644 4.49935 19.6963 4.49023H19.7168L19.751 4.53809L19.7646 4.53125C19.7874 4.52669 19.7943 4.5153 19.7852 4.49707L19.7578 4.50391L19.7441 4.4834C19.776 4.47884 19.8193 4.4834 19.874 4.49707L19.9082 4.49023L19.9014 4.47656L19.8535 4.49023L19.8398 4.44922L19.9424 4.44238C19.9606 4.42871 19.9766 4.42188 19.9902 4.42188C20.0312 4.43099 20.0609 4.43327 20.0791 4.42871L20.0518 4.4082L20.0449 4.39453ZM18.9307 5.78906L18.9512 5.83691H18.9648L18.9512 5.78223L18.9307 5.78906ZM19.0605 6.00098C19.0697 6.01921 19.0833 6.02604 19.1016 6.02148L19.1357 6.01465C19.1266 5.99642 19.113 5.98958 19.0947 5.99414L19.0605 6.00098ZM19.8604 6.34277C19.874 6.34277 19.8923 6.34277 19.915 6.34277L19.9219 6.31543L19.9082 6.28125H19.8945C19.8763 6.28581 19.8649 6.30632 19.8604 6.34277ZM20.9541 6.62305L20.9678 6.66406C20.986 6.67773 20.9951 6.68913 20.9951 6.69824L21.0156 6.69141L21.002 6.65723C20.9837 6.64355 20.9746 6.63216 20.9746 6.62305H20.9541ZM20.4072 7.04004C20.3662 7.10384 20.348 7.15625 20.3525 7.19727L20.3867 7.19043C20.3776 7.15853 20.4141 7.11068 20.4961 7.04688L20.4688 7.02637L20.4414 7.04688L20.4072 7.04004ZM20.5918 7.06738C20.6009 7.1084 20.6032 7.13574 20.5986 7.14941L20.6328 7.14258L20.6055 7.06738H20.5918ZM21.5557 7.99023L21.5625 8.00391L21.5762 7.99707L21.6172 7.96289C21.6217 7.97201 21.6286 7.97428 21.6377 7.96973C21.6878 7.91048 21.7106 7.8763 21.7061 7.86719H21.6924C21.6012 7.93555 21.5557 7.97656 21.5557 7.99023ZM21.4395 8.09277C21.444 8.10645 21.4349 8.12923 21.4121 8.16113C21.4577 8.1429 21.4782 8.1224 21.4736 8.09961L21.4395 8.09277ZM21.2959 8.48242C21.3005 8.49154 21.2982 8.50521 21.2891 8.52344L21.2959 8.53027H21.3096C21.3096 8.52116 21.3118 8.50749 21.3164 8.48926L21.3096 8.47559L21.2959 8.48242ZM21.2822 8.55078C21.2913 8.56901 21.2913 8.58496 21.2822 8.59863L21.2891 8.6123H21.3027C21.3027 8.60319 21.305 8.58952 21.3096 8.57129L21.3027 8.54395L21.2822 8.55078ZM20.7422 8.74902C20.7604 8.7627 20.7718 8.77409 20.7764 8.7832H20.79C20.7855 8.76953 20.7946 8.74447 20.8174 8.70801L20.8105 8.69434L20.7422 8.74902ZM20.7012 8.93359H20.6875L20.6738 8.89941H20.6602C20.6237 8.94499 20.585 8.97005 20.5439 8.97461L20.5166 8.9541L20.5303 8.92676L20.5098 8.93359C20.4505 9.04297 20.3343 9.17513 20.1611 9.33008L20.1885 9.35742L20.1816 9.38477L20.1953 9.37793C20.1953 9.36882 20.2728 9.29134 20.4277 9.14551L20.4346 9.15918C20.4072 9.2321 20.3138 9.33008 20.1543 9.45312C20.1042 9.44857 20.0677 9.44857 20.0449 9.45312C20.054 9.48503 20.0039 9.53743 19.8945 9.61035C19.9082 9.64681 19.8809 9.69694 19.8125 9.76074C19.7122 9.84733 19.6712 9.91341 19.6895 9.95898C19.6986 9.95898 19.7054 9.96354 19.71 9.97266C19.6826 10.0137 19.6165 10.057 19.5117 10.1025C19.4889 10.1937 19.4456 10.2507 19.3818 10.2734C19.3363 10.3327 19.3089 10.4102 19.2998 10.5059C19.2816 10.5104 19.2383 10.5811 19.1699 10.7178C19.0879 10.7907 19.0537 10.8454 19.0674 10.8818C19.0856 10.8955 19.097 10.9069 19.1016 10.916C19.0742 11.0892 19.0469 11.1963 19.0195 11.2373L19.04 11.2852C19.0446 11.3034 19.0628 11.3102 19.0947 11.3057L19.1016 11.3125C19.0651 11.3216 19.0514 11.333 19.0605 11.3467L19.0947 11.4492C19.1768 11.5221 19.2292 11.5859 19.252 11.6406C19.2793 11.6908 19.2975 11.7135 19.3066 11.709L19.2998 11.7363C19.3089 11.7546 19.3226 11.7614 19.3408 11.7568V11.8115C19.359 11.8571 19.4297 11.9095 19.5527 11.9688C19.6895 12.1009 19.9287 12.2467 20.2705 12.4062L20.2842 12.3994C20.3753 12.29 20.4141 12.2217 20.4004 12.1943C20.3867 12.1442 20.3981 12.0918 20.4346 12.0371L20.4004 11.9824L20.4141 11.9756L20.3867 11.9551C20.4004 11.9277 20.4095 11.8867 20.4141 11.832L20.3936 11.8115L20.4072 11.75L20.4414 11.7568H20.4619C20.4528 11.734 20.4619 11.6816 20.4893 11.5996L20.4756 11.5107C20.4574 11.5153 20.4437 11.5107 20.4346 11.4971C20.4346 11.4788 20.4437 11.4674 20.4619 11.4629L20.4688 11.4902L20.4824 11.4834L20.4756 11.4561C20.4665 11.4606 20.4596 11.4583 20.4551 11.4492C20.5007 11.4401 20.512 11.4082 20.4893 11.3535C20.4665 11.3581 20.4528 11.3512 20.4482 11.333L20.5303 11.1689C20.4984 11.1234 20.4688 11.0892 20.4414 11.0664C20.446 11.0391 20.4528 11.0254 20.4619 11.0254L20.4414 11.0049C20.4368 10.9867 20.4437 10.9753 20.4619 10.9707H20.5166C20.5075 10.8887 20.512 10.8363 20.5303 10.8135C20.5166 10.8135 20.5098 10.8089 20.5098 10.7998C20.569 10.7907 20.6009 10.6836 20.6055 10.4785C20.6191 10.474 20.6374 10.4466 20.6602 10.3965C20.6647 10.4056 20.6715 10.4102 20.6807 10.4102L20.6396 10.335C20.626 10.3031 20.6328 10.2096 20.6602 10.0547L20.5986 10.0684L20.5918 10.041C20.5827 10.0228 20.6009 9.91341 20.6465 9.71289H20.6602C20.6647 9.71745 20.6807 9.74023 20.708 9.78125L20.7217 9.77441C20.7308 9.73796 20.724 9.68783 20.7012 9.62402C20.6829 9.63314 20.6693 9.63997 20.6602 9.64453C20.651 9.6263 20.6693 9.61263 20.7148 9.60352C20.6966 9.58984 20.6875 9.57845 20.6875 9.56934L20.6807 9.5625L20.6943 9.55566L20.708 9.58301L20.7217 9.57617C20.7171 9.49414 20.7376 9.33919 20.7832 9.11133C20.7969 9.04297 20.7992 8.96322 20.79 8.87207C20.7764 8.87663 20.7695 8.87435 20.7695 8.86523L20.7012 8.93359ZM21.2002 8.91309C21.2093 8.93132 21.2093 8.94727 21.2002 8.96094L21.2344 8.9541L21.2207 8.90625L21.2002 8.91309ZM18.9307 10.0889H18.9443C18.9489 10.098 18.9375 10.1117 18.9102 10.1299L18.9033 10.123C18.9033 10.1048 18.9124 10.0934 18.9307 10.0889ZM21.0566 9.7334C21.0612 9.74707 21.0566 9.76758 21.043 9.79492L21.0498 9.81543H21.0635C21.0589 9.79264 21.0635 9.76986 21.0771 9.74707L21.0703 9.7334H21.0566ZM20.626 9.95898C20.626 10.0137 20.626 10.0433 20.626 10.0479L20.6533 10.0273C20.6579 10.0365 20.6647 10.041 20.6738 10.041C20.6738 10.0365 20.6738 10.0046 20.6738 9.94531L20.6465 9.96582C20.6465 9.95671 20.6396 9.95443 20.626 9.95898ZM18.999 10.9365L18.9922 11.0596L19.0264 11.0664L19.0195 11.0938L19.0264 11.1074L19.04 11.1006C19.0492 11.0186 19.0492 10.9661 19.04 10.9434L19.0332 10.9297L18.999 10.9365ZM20.4961 10.6221C20.5189 10.6175 20.5326 10.6221 20.5371 10.6357C20.5417 10.654 20.5326 10.6654 20.5098 10.6699H20.4961L20.4893 10.6631C20.4984 10.6449 20.5007 10.6312 20.4961 10.6221ZM20.4209 11.791V11.8047C20.4391 11.8184 20.4505 11.8298 20.4551 11.8389L20.4688 11.832L20.4482 11.7842L20.4209 11.791ZM20.6533 12.7002L20.667 12.6934C20.708 12.6706 20.7262 12.6546 20.7217 12.6455H20.7012C20.6647 12.6683 20.6488 12.6865 20.6533 12.7002Z" fill="#2E2E2E"/>
<path d="M26.5801 0.292969L26.5938 0.286133L26.6279 0.299805C26.6462 0.286133 26.6667 0.277018 26.6895 0.272461L26.792 0.306641L26.7852 0.292969C26.931 0.32487 27.0062 0.349935 27.0107 0.368164C27.0335 0.390951 27.0495 0.420573 27.0586 0.457031L27.0859 0.436523C27.0859 0.445638 27.1178 0.484375 27.1816 0.552734L27.1885 0.580078L27.1748 0.586914C27.1748 0.596029 27.1794 0.600586 27.1885 0.600586C27.234 0.883138 27.1634 1.37988 26.9766 2.09082C26.9583 2.14551 26.9401 2.17513 26.9219 2.17969H26.9082L26.874 2.16602C26.8877 2.24349 26.8512 2.32096 26.7646 2.39844L26.7373 2.54883L26.7441 2.5625L26.7578 2.55566C26.7533 2.50553 26.7646 2.47819 26.792 2.47363L26.8262 2.4668C26.8262 2.48958 26.8102 2.50326 26.7783 2.50781L26.7988 2.53516C26.7988 2.58984 26.7601 2.63997 26.6826 2.68555C26.6644 2.89518 26.5983 3.06608 26.4844 3.19824L26.334 3.54688L26.3545 3.57422C26.3044 3.64258 26.2474 3.77018 26.1836 3.95703C26.1654 3.96615 26.138 4.02539 26.1016 4.13477L26.1084 4.18262L26.0605 4.18945C26.0651 4.23047 26.0446 4.26693 25.999 4.29883C25.9945 4.28516 25.9876 4.2806 25.9785 4.28516C25.9831 4.30794 25.9717 4.34212 25.9443 4.3877L25.9102 4.45605H25.9238C25.9284 4.53809 25.8737 4.67025 25.7598 4.85254H25.7256C25.7256 4.84342 25.721 4.84115 25.7119 4.8457C25.7165 4.86393 25.7119 4.87305 25.6982 4.87305C25.6755 4.86849 25.6595 4.86621 25.6504 4.86621L25.5137 5.03711C25.5273 5.05534 25.5365 5.06901 25.541 5.07812L25.5684 5.05762V5.0918C25.5319 5.17383 25.4977 5.21712 25.4658 5.22168C25.4248 5.20345 25.3952 5.19661 25.377 5.20117L25.3701 5.23535L25.3975 5.22852C25.4066 5.2832 25.3291 5.43587 25.165 5.68652C25.1696 5.70931 25.1536 5.75033 25.1172 5.80957H25.1377C25.165 5.77767 25.1764 5.7526 25.1719 5.73438L25.2061 5.74805C25.2152 5.72526 25.2174 5.70247 25.2129 5.67969L25.2402 5.67285L25.2539 5.7207C25.0762 5.95768 24.9121 6.21517 24.7617 6.49316H24.7891L24.7959 6.54102C24.7686 6.54557 24.7503 6.60254 24.7412 6.71191C24.7275 6.71191 24.7093 6.73014 24.6865 6.7666C24.6865 6.75749 24.682 6.75293 24.6729 6.75293V6.78711L24.6934 6.81445L24.6729 6.88281C24.6956 6.95573 24.707 6.99674 24.707 7.00586C24.6979 7.08333 24.6979 7.14714 24.707 7.19727L24.7207 7.2793L24.707 7.31348L24.6729 7.2998L24.6592 7.30664V7.32031L24.6934 7.31348L24.7002 7.36133L24.6865 7.36816L24.6797 7.33398L24.6455 7.34082L24.6523 7.35449C24.6797 7.38639 24.6934 7.41146 24.6934 7.42969C24.6842 7.42969 24.6797 7.43424 24.6797 7.44336C24.6979 7.44336 24.723 7.48893 24.7549 7.58008C24.7412 7.66667 24.7253 7.71224 24.707 7.7168L24.7275 7.74414L24.7344 7.77832C24.7435 7.83301 24.7275 7.93327 24.6865 8.0791C24.6637 8.0791 24.6523 8.08594 24.6523 8.09961L24.707 8.20215C24.6888 8.20671 24.6774 8.23633 24.6729 8.29102C24.682 8.30469 24.6888 8.3252 24.6934 8.35254L24.666 8.37305C24.666 8.38216 24.6729 8.38672 24.6865 8.38672L24.666 8.77637C24.6797 8.7946 24.6865 8.80827 24.6865 8.81738C24.6683 8.8265 24.6592 8.84017 24.6592 8.8584L24.6729 8.90625L24.7275 8.96094L24.7686 9.21387L24.7549 9.24805C24.7868 9.24349 24.8187 9.30273 24.8506 9.42578L24.8779 9.41895C24.9964 9.3278 25.1104 9.19792 25.2197 9.0293C25.3018 8.95182 25.3861 8.86296 25.4727 8.7627L25.4863 8.75586L25.4932 8.79004L25.541 8.7832C25.5365 8.7513 25.557 8.68294 25.6025 8.57812C25.6025 8.57357 25.6322 8.5485 25.6914 8.50293L25.7188 8.49609L25.7256 8.50977C25.7256 8.51888 25.7028 8.55078 25.6572 8.60547V8.61914H25.6777C25.7279 8.5599 25.7529 8.5166 25.7529 8.48926C25.7393 8.47559 25.7301 8.45508 25.7256 8.42773C25.7438 8.36393 25.7826 8.29329 25.8418 8.21582L25.8213 8.18848C25.8167 8.1748 25.8509 8.13151 25.9238 8.05859C25.9512 7.94466 25.9854 7.88542 26.0264 7.88086L26.0059 7.85352C26.0059 7.83529 26.0195 7.81706 26.0469 7.79883L26.0537 7.82617L26.04 7.86035H26.0742C26.2246 7.52767 26.2975 7.33854 26.293 7.29297L26.2861 7.24512L26.252 7.16309L26.1357 7.25195L26.1426 7.26562L26.1699 7.25879C26.1745 7.28158 26.1676 7.29297 26.1494 7.29297C26.1266 7.28841 26.1084 7.28613 26.0947 7.28613L26.1152 7.32031C26.0833 7.3431 26.0537 7.35677 26.0264 7.36133L26.0537 7.31348H26.0332C25.9694 7.36361 25.9375 7.39551 25.9375 7.40918L25.9717 7.40234V7.42285C25.9535 7.42285 25.9352 7.43652 25.917 7.46387H25.8965V7.4502L25.9033 7.41602H25.8896C25.8304 7.44336 25.8031 7.47982 25.8076 7.52539L25.7734 7.51855L25.7461 7.53906L25.7666 7.56641L25.7734 7.60059C25.7005 7.6416 25.6618 7.66211 25.6572 7.66211L25.6914 7.70996C25.6549 7.76921 25.6117 7.80111 25.5615 7.80566L25.541 7.77832C25.5547 7.77832 25.5592 7.77376 25.5547 7.76465L25.5068 7.77148L25.5137 7.79883L25.4521 7.8125C25.3975 7.79883 25.3542 7.76693 25.3223 7.7168C25.3314 7.7168 25.3359 7.70996 25.3359 7.69629C25.3223 7.70085 25.304 7.68945 25.2812 7.66211V7.6416H25.3086V7.60742L25.2744 7.61426L25.2812 7.6416L25.2471 7.64844C25.2425 7.61198 25.2676 7.55957 25.3223 7.49121C25.2676 7.50033 25.238 7.49349 25.2334 7.4707C25.3382 7.375 25.3883 7.31803 25.3838 7.2998C25.3428 7.30892 25.3223 7.30208 25.3223 7.2793C25.5228 7.09701 25.6527 7.0013 25.7119 6.99219L25.7734 6.99902C25.7643 6.93066 25.8441 6.85319 26.0127 6.7666C26.0127 6.74382 26.0514 6.71647 26.1289 6.68457C26.1426 6.68457 26.1494 6.68913 26.1494 6.69824L26.2246 6.6709C26.3203 6.66634 26.375 6.66178 26.3887 6.65723C26.4069 6.64355 26.4206 6.63672 26.4297 6.63672V6.65039L26.4639 6.62988C26.5277 6.64355 26.5618 6.65951 26.5664 6.67773L26.5938 6.65723C26.7168 6.68001 26.7852 6.7347 26.7988 6.82129C26.8079 6.82129 26.8216 6.83496 26.8398 6.8623L26.8057 6.95117V6.97852C26.8148 6.97852 26.8376 6.98079 26.874 6.98535L26.8535 6.95801C26.8626 6.93978 26.8649 6.91699 26.8604 6.88965H26.8877L26.9014 6.96484L26.8672 7.05371L26.874 7.10156C26.8421 7.10612 26.8285 7.15169 26.833 7.23828C26.8649 7.23372 26.8809 7.236 26.8809 7.24512C26.8125 7.51855 26.6895 7.79655 26.5117 8.0791C26.4935 8.08366 26.4342 8.18392 26.334 8.37988C26.293 8.45736 26.2337 8.52799 26.1562 8.5918C26.0833 8.72852 26.0309 8.80143 25.999 8.81055L25.917 8.80371C25.835 8.9222 25.7962 8.98828 25.8008 9.00195L25.8145 8.99512C25.8281 8.99512 25.8691 8.94043 25.9375 8.83105H25.9512L25.9785 8.89258C25.9375 8.92448 25.8942 8.99056 25.8486 9.09082C25.8031 9.09993 25.7028 9.21842 25.5479 9.44629L25.5205 9.4668C25.516 9.45312 25.5091 9.44857 25.5 9.45312V9.4668L25.5205 9.49414C25.4613 9.60352 25.3678 9.6901 25.2402 9.75391C25.2402 9.76302 25.2288 9.79036 25.2061 9.83594L25.1719 9.8291H25.1582C25.1582 9.87923 25.0739 9.9362 24.9053 10L24.8301 10.0137C24.8164 10.0137 24.8096 10.0091 24.8096 10L24.7822 10.0205H24.7617C24.5658 9.99316 24.4632 9.94987 24.4541 9.89062L24.4609 9.85645C24.4473 9.861 24.429 9.84733 24.4062 9.81543C24.4062 9.80632 24.4108 9.80176 24.4199 9.80176C24.3789 9.74251 24.3584 9.70833 24.3584 9.69922H24.3447L24.3105 9.71973C24.2923 9.66504 24.2832 9.63542 24.2832 9.63086C24.265 9.52148 24.2559 9.3916 24.2559 9.24121C24.2422 9.22298 24.2331 9.20931 24.2285 9.2002C24.2467 9.19564 24.265 9.17057 24.2832 9.125C24.2559 9.07031 24.2331 8.99967 24.2148 8.91309L24.2354 8.90625C24.2536 8.90625 24.265 8.91536 24.2695 8.93359L24.249 8.98828L24.2969 9.00879L24.3037 8.92676C24.29 8.93132 24.2832 8.92676 24.2832 8.91309C24.306 8.91309 24.306 8.83789 24.2832 8.6875C24.2695 8.69206 24.2604 8.67383 24.2559 8.63281H24.2354V8.72852L24.2217 8.73535V8.71484L24.208 8.55762L24.2422 8.55078C24.2513 8.60547 24.2718 8.62826 24.3037 8.61914C24.2992 8.5918 24.3014 8.57585 24.3105 8.57129C24.2786 8.52116 24.2627 8.48698 24.2627 8.46875C24.2673 8.44596 24.2695 8.42318 24.2695 8.40039L24.249 8.40723C24.2764 8.35254 24.2878 8.31152 24.2832 8.28418H24.3105C24.3333 8.27962 24.347 8.29329 24.3516 8.3252L24.3652 8.31836C24.388 8.25 24.3971 8.20671 24.3926 8.18848C24.3835 8.18848 24.3789 8.18392 24.3789 8.1748C24.388 8.1748 24.3926 8.16797 24.3926 8.1543C24.3698 8.15885 24.3561 8.14974 24.3516 8.12695C24.3835 8.1224 24.3994 8.05632 24.3994 7.92871C24.3766 7.84668 24.3538 7.79655 24.3311 7.77832C24.363 7.77376 24.3857 7.7487 24.3994 7.70312L24.3721 7.62793C24.3903 7.62337 24.4085 7.53906 24.4268 7.375C24.4131 7.35677 24.4062 7.34082 24.4062 7.32715H24.4199L24.3994 7.2998C24.3994 7.28613 24.404 7.2793 24.4131 7.2793L24.3926 7.25195L24.4062 7.04004C24.3926 7.01725 24.3857 7.0013 24.3857 6.99219C24.3903 6.9694 24.3926 6.95345 24.3926 6.94434C24.3835 6.94434 24.3766 6.93978 24.3721 6.93066C24.3857 6.92611 24.3903 6.91927 24.3857 6.91016L24.4199 6.92383L24.4404 6.91699L24.4336 6.88965L24.4473 6.88281L24.4814 6.89648V6.88281C24.4769 6.86914 24.4701 6.86458 24.4609 6.86914L24.4746 6.83496L24.4678 6.81445L24.4199 6.82129C24.4245 6.85319 24.4176 6.87142 24.3994 6.87598H24.3857L24.3789 6.84863H24.3584L24.3174 6.88965L24.29 6.89648L24.2764 6.81445L24.249 6.83496L24.2012 6.8418C24.1784 6.79167 24.167 6.76204 24.167 6.75293C24.1761 6.74837 24.1807 6.74154 24.1807 6.73242H24.167C24.1715 6.75521 24.1624 6.76888 24.1396 6.77344L24.0645 6.70508C24.069 6.72331 24.0599 6.7347 24.0371 6.73926L24.0166 6.71191L24.0645 6.62305V6.60938L24.0234 6.64355L23.9414 6.65723V6.64355C23.946 6.62077 23.9482 6.60254 23.9482 6.58887C23.9391 6.59342 23.9323 6.59115 23.9277 6.58203C23.9688 6.55924 23.9961 6.52734 24.0098 6.48633L23.9824 6.41113C24.0371 6.31999 24.0986 6.26074 24.167 6.2334C24.2126 6.17871 24.2422 6.13086 24.2559 6.08984C24.3516 6.01237 24.3971 5.95085 24.3926 5.90527C24.3835 5.86426 24.4176 5.78451 24.4951 5.66602C24.5225 5.52018 24.5452 5.44727 24.5635 5.44727L24.5361 5.41309L24.543 5.35156V5.31738H24.5225L24.5361 5.38574H24.502V5.37207C24.4792 5.22624 24.4883 5.14876 24.5293 5.13965L24.5088 5.1123C24.5225 5.04395 24.5339 5.00977 24.543 5.00977C24.5293 5.00065 24.5179 4.96419 24.5088 4.90039L24.4883 4.90723C24.4974 4.94824 24.4906 4.97103 24.4678 4.97559H24.4541C24.445 4.91178 24.4632 4.85026 24.5088 4.79102L24.5225 4.78418L24.5293 4.81836H24.543L24.5771 4.4082L24.5566 4.38086C24.5612 4.27148 24.5726 4.21452 24.5908 4.20996L24.625 4.22363C24.6569 4.14616 24.6706 4.10059 24.666 4.08691C24.6615 4.05501 24.6455 4.014 24.6182 3.96387L24.6318 3.92969L24.6045 3.90234C24.6592 3.75651 24.6797 3.64486 24.666 3.56738H24.6523V3.55371C24.6979 3.54915 24.7253 3.48535 24.7344 3.3623L24.6865 3.36914L24.6592 3.38965L24.6523 3.37598C24.6615 3.28939 24.6774 3.24382 24.7002 3.23926C24.7002 3.24837 24.7048 3.25293 24.7139 3.25293L24.7275 3.21875L24.7207 3.20508L24.6934 3.22559V3.19141L24.7686 3.16406L24.748 3.05469L24.7617 3.02051C24.748 3.02051 24.7412 3.01595 24.7412 3.00684C24.7777 2.95215 24.8255 2.81543 24.8848 2.59668C24.903 2.59212 24.9189 2.52376 24.9326 2.3916C25.0101 2.31868 25.0443 2.25033 25.0352 2.18652L25.0693 2.19336H25.083V2.17969C25.0602 2.17969 25.0488 2.17513 25.0488 2.16602C25.0579 2.12044 25.0693 2.09766 25.083 2.09766C25.083 2.10677 25.0898 2.11133 25.1035 2.11133C25.1172 2.02018 25.1628 1.93587 25.2402 1.8584L25.2197 1.83105C25.2334 1.80827 25.2539 1.7627 25.2812 1.69434C25.304 1.68978 25.3268 1.66927 25.3496 1.63281L25.3291 1.60547C25.484 1.31836 25.6208 1.12467 25.7393 1.02441C25.7393 1.03353 25.7461 1.03809 25.7598 1.03809L25.7461 1.06543V1.08594L25.7939 1.0791C25.8623 1.02441 25.8919 0.969727 25.8828 0.915039C25.8646 0.910482 25.8441 0.910482 25.8213 0.915039C25.8213 0.874023 25.8464 0.837565 25.8965 0.805664L25.9307 0.798828L25.9375 0.826172H25.9512C25.9466 0.798828 25.974 0.773763 26.0332 0.750977L26.0264 0.703125L25.9717 0.757812H25.958L25.9512 0.744141C26.0332 0.616536 26.1517 0.511719 26.3066 0.429688L26.3408 0.443359C26.3363 0.416016 26.4229 0.379557 26.6006 0.333984V0.320312L26.5801 0.292969ZM26.5322 0.942383C26.5277 0.965169 26.5254 0.983398 26.5254 0.99707H26.498C26.4844 1.00163 26.4775 0.99707 26.4775 0.983398C26.4137 1.00618 26.3864 1.03809 26.3955 1.0791C26.4046 1.0791 26.4092 1.08366 26.4092 1.09277C26.359 1.16113 26.3089 1.20671 26.2588 1.22949L26.2246 1.22266L26.1904 1.24316L26.2109 1.27051L26.2178 1.28418C26.2178 1.3252 26.1175 1.44824 25.917 1.65332C25.8304 1.79915 25.778 1.87207 25.7598 1.87207L25.7803 1.90625C25.7803 1.93815 25.7096 2.03385 25.5684 2.19336C25.5729 2.2207 25.5706 2.24349 25.5615 2.26172C25.5706 2.26172 25.5775 2.26628 25.582 2.27539C25.5684 2.27539 25.5524 2.28223 25.5342 2.2959L25.5547 2.33008C25.4043 2.70833 25.3245 2.92025 25.3154 2.96582C25.2607 2.97493 25.222 3.10482 25.1992 3.35547L25.2197 3.38281C25.2106 3.42839 25.1992 3.45117 25.1855 3.45117C25.181 3.44206 25.1742 3.4375 25.165 3.4375C25.0921 3.66992 25.0602 3.80436 25.0693 3.84082C25.0693 3.9502 25.0602 4.00716 25.042 4.01172C25.0602 4.02995 25.0693 4.04362 25.0693 4.05273C25.042 4.10286 25.0283 4.19173 25.0283 4.31934L25.0625 4.33301C25.0579 4.35124 25.0557 4.36719 25.0557 4.38086L25.0215 4.36719C25.0215 4.42188 24.985 4.49251 24.9121 4.5791H24.9395L24.9463 4.60645C24.8916 4.61556 24.8643 4.68392 24.8643 4.81152L24.8848 4.8457L24.8643 4.92773C24.8779 4.92773 24.8848 4.93229 24.8848 4.94141C24.8665 4.94596 24.8574 4.95736 24.8574 4.97559L24.8779 5.10547L24.8916 5.09863V5.07129L24.9053 5.06445L24.9736 5.10547C24.9691 5.08268 25.1058 4.88216 25.3838 4.50391C25.4248 4.42188 25.459 4.33073 25.4863 4.23047L25.6777 3.92285H25.6914L25.6982 3.93652L25.6709 3.99121L25.6777 4.00488C25.7461 3.92741 25.7917 3.80664 25.8145 3.64258L26.04 3.22559L26.0742 3.23242L26.2041 2.84277L26.1973 2.80859H26.1836L26.1904 2.85645C26.1676 2.861 26.1562 2.85189 26.1562 2.8291L26.1494 2.81543C26.2269 2.67415 26.2907 2.5306 26.3408 2.38477V2.36426L26.3203 2.33691L26.3477 2.33008L26.3545 2.36426H26.3682C26.3682 2.35059 26.3704 2.33236 26.375 2.30957C26.3522 2.27767 26.3385 2.24805 26.334 2.2207C26.4115 1.92904 26.4707 1.75814 26.5117 1.70801C26.5436 1.50293 26.5732 1.39128 26.6006 1.37305C26.6051 1.38216 26.612 1.38672 26.6211 1.38672L26.6143 1.36621L26.5869 1.29102C26.6051 1.29102 26.6188 1.26823 26.6279 1.22266C26.6188 1.22266 26.612 1.2181 26.6074 1.20898L26.6689 1.19531C26.6644 1.13151 26.6712 1.09961 26.6895 1.09961C26.653 1.02669 26.6211 0.992513 26.5938 0.99707L26.5869 0.983398C26.6188 0.978841 26.6348 0.965169 26.6348 0.942383C26.6257 0.94694 26.5915 0.94694 26.5322 0.942383ZM26.4502 1.02441V1.03809C26.4548 1.06087 26.4456 1.07227 26.4229 1.07227L26.4092 1.0791C26.4092 1.06087 26.4229 1.04264 26.4502 1.02441ZM26.5527 1.76953L26.6211 1.57812L26.6143 1.56445H26.6006C26.5732 1.56901 26.5573 1.63737 26.5527 1.76953ZM25.001 2.48047C25.001 2.48958 24.9964 2.50553 24.9873 2.52832L24.9941 2.54883L25.0078 2.54199C25.0078 2.53288 25.0101 2.51693 25.0146 2.49414V2.48047H25.001ZM24.9531 2.50098C24.9531 2.51465 24.9508 2.53288 24.9463 2.55566V2.56934H24.96C24.96 2.55566 24.9645 2.53743 24.9736 2.51465L24.9668 2.50098H24.9531ZM24.8438 2.84277L24.8643 2.87012C24.8597 2.8929 24.8574 2.91569 24.8574 2.93848C24.8893 2.9248 24.9007 2.89062 24.8916 2.83594L24.8438 2.84277ZM24.6387 3.39648C24.6615 3.39648 24.6751 3.4056 24.6797 3.42383L24.6523 3.47168L24.6592 3.50586L24.6934 3.49902C24.6934 3.52181 24.6842 3.5332 24.666 3.5332C24.6615 3.52409 24.6546 3.51953 24.6455 3.51953C24.6364 3.54232 24.6341 3.5651 24.6387 3.58789L24.6045 3.59473C24.6045 3.58105 24.6159 3.51497 24.6387 3.39648ZM26.4844 3.37598H26.5117L26.5186 3.38965C26.5186 3.41243 26.5094 3.42383 26.4912 3.42383L26.4844 3.37598ZM25.9307 3.59473C25.9352 3.61296 25.9284 3.63574 25.9102 3.66309H25.9307L25.9512 3.6084V3.59473H25.9307ZM24.9805 3.88867C24.9805 3.91146 24.9782 3.93424 24.9736 3.95703H24.9873C25.0101 3.95247 25.0192 3.9388 25.0146 3.91602C25.0101 3.89779 24.9987 3.88867 24.9805 3.88867ZM24.96 3.99121C24.9645 4.02767 24.9645 4.05501 24.96 4.07324V4.08691H24.9736L24.9941 3.98438L24.96 3.99121ZM26.0811 4.02539L26.0879 4.03906H26.1016C26.097 4.02083 26.1038 3.99805 26.1221 3.9707V3.9502C26.1038 3.95475 26.0902 3.97982 26.0811 4.02539ZM24.6387 4.28516V4.3125L24.6045 4.30566L24.6113 4.31934L24.6387 4.39453H24.6523C24.6478 4.34896 24.6478 4.31706 24.6523 4.29883V4.27832L24.6387 4.28516ZM25.7188 4.69531C25.7324 4.71354 25.7415 4.72949 25.7461 4.74316L25.7598 4.73633C25.8327 4.60872 25.8783 4.49479 25.8965 4.39453C25.9193 4.38997 25.9284 4.3763 25.9238 4.35352L25.9102 4.36035C25.8783 4.39681 25.8145 4.50846 25.7188 4.69531ZM25.3428 5.46777L25.3701 5.46094L25.377 5.49512C25.3451 5.57259 25.32 5.61361 25.3018 5.61816H25.2812V5.60449C25.3223 5.52702 25.3428 5.48145 25.3428 5.46777ZM25.042 5.91895V5.93262C25.0648 5.93262 25.0739 5.92122 25.0693 5.89844L25.0625 5.88477C25.0443 5.88932 25.0374 5.90072 25.042 5.91895ZM24.4336 7.01953L24.4473 7.09473H24.4678L24.4541 7.0127L24.4336 7.01953ZM25.418 7.2793C25.4271 7.2793 25.4316 7.28385 25.4316 7.29297C25.4544 7.2793 25.4704 7.27246 25.4795 7.27246C25.4749 7.24967 25.4635 7.24056 25.4453 7.24512C25.4225 7.25423 25.4134 7.26562 25.418 7.2793ZM25.3223 7.2998C25.3132 7.34082 25.2995 7.36361 25.2812 7.36816H25.2676L25.2607 7.32031C25.2653 7.32031 25.2858 7.31348 25.3223 7.2998ZM26.792 7.29297V7.30664C26.8011 7.32943 26.8148 7.33854 26.833 7.33398L26.8262 7.32031C26.8262 7.29753 26.8148 7.28841 26.792 7.29297ZM24.6455 7.74414L24.6797 7.75098L24.6729 7.70312C24.6546 7.71224 24.6455 7.72591 24.6455 7.74414ZM26.7646 7.42285V7.44336L26.7988 7.43652L26.792 7.38867C26.7692 7.39323 26.7601 7.40462 26.7646 7.42285ZM24.3174 7.8125L24.3311 7.9082H24.3037L24.29 7.84668C24.29 7.82389 24.2992 7.8125 24.3174 7.8125ZM24.3105 8.07227L24.3242 8.06543L24.3379 8.11328L24.29 8.12012L24.2832 8.10645C24.2832 8.08366 24.2923 8.07227 24.3105 8.07227ZM24.6934 9.06348L24.7207 9.23438H24.7344C24.7344 9.21159 24.7389 9.2002 24.748 9.2002C24.7344 9.19564 24.7207 9.14779 24.707 9.05664L24.6934 9.06348ZM24.2969 9.41211L24.3105 9.49414L24.3447 9.4873L24.3105 9.41211H24.2969Z" fill="#2E2E2E"/>
<path d="M29.4238 4.64062C29.4831 4.64518 29.515 4.65885 29.5195 4.68164L29.5674 4.6748L29.6973 4.70898L29.7041 4.76367L29.6836 4.80469L29.6973 4.8252L29.7041 4.88672C29.7223 4.89583 29.736 4.90039 29.7451 4.90039C29.7269 5.00977 29.7064 5.06673 29.6836 5.07129L29.7041 5.0918C29.613 5.45182 29.5378 5.63411 29.4785 5.63867C29.4785 5.64779 29.4762 5.66146 29.4717 5.67969L29.4854 5.7002C29.4762 5.71842 29.474 5.73665 29.4785 5.75488H29.4922C29.4421 5.86882 29.4102 5.92578 29.3965 5.92578L29.4238 5.9668C29.3509 6.10807 29.2917 6.32227 29.2461 6.60938L29.2393 6.65723L29.2529 6.68457C29.2301 6.75293 29.2028 6.80534 29.1709 6.8418L29.1846 6.86914L29.1777 6.89648L29.1914 6.91699L29.1846 6.97168C29.1937 6.98535 29.1982 6.99674 29.1982 7.00586C29.1982 7.01497 29.1846 7.04232 29.1572 7.08789L29.1299 7.07422L29.1162 7.08105C29.1208 7.09473 29.1344 7.10156 29.1572 7.10156L29.1641 7.17676L29.1572 7.2041H29.1709C29.1436 7.25879 29.1322 7.32259 29.1367 7.39551V7.40918C29.1276 7.40918 29.1139 7.42285 29.0957 7.4502C29.1139 7.47754 29.123 7.49805 29.123 7.51172C29.1139 7.56641 29.1094 7.59603 29.1094 7.60059L29.082 7.60742V7.58008H29.0684C29.0684 7.59831 29.0615 7.60742 29.0479 7.60742L29.0547 7.66211C29.0775 7.65755 29.0911 7.67578 29.0957 7.7168C29.1003 7.75326 29.0843 7.77148 29.0479 7.77148C29.057 7.98568 29.0479 8.09277 29.0205 8.09277L29.0342 8.24316L29.0137 8.25L29.0068 8.22266H28.9932C28.9977 8.26367 28.9977 8.29102 28.9932 8.30469L29.0273 8.29785V8.5166H29V8.50293L29.0068 8.47559L28.9863 8.48242C28.9863 8.50065 28.9818 8.50977 28.9727 8.50977L28.9863 8.53027L28.9795 8.55762L29 8.61914C28.9863 8.65104 28.9795 8.67839 28.9795 8.70117C28.984 8.71484 29.0068 8.72852 29.0479 8.74219C29.0479 8.72852 29.1344 8.66016 29.3076 8.53711C29.3258 8.54167 29.3395 8.54395 29.3486 8.54395L29.5537 8.33203H29.5674L29.5605 8.35938L29.5811 8.35254C29.6266 8.32064 29.6585 8.28874 29.6768 8.25684L29.6699 8.24316L29.6494 8.25684L29.6357 8.26367V8.22266C29.6859 8.17708 29.7201 8.15202 29.7383 8.14746H29.752V8.1748H29.7314V8.20215C29.8089 8.16113 29.859 8.11784 29.8818 8.07227H29.8682L29.8271 8.11328H29.8135L29.8066 8.0791C29.8066 8.06543 29.8454 8.02669 29.9229 7.96289C29.9411 7.97201 29.9593 7.97428 29.9775 7.96973C29.973 7.91504 30.071 7.83757 30.2715 7.7373H30.2852L30.2646 7.70996C30.2646 7.6735 30.3421 7.60286 30.4971 7.49805L30.5107 7.49121L30.5176 7.53223C30.4857 7.53678 30.4606 7.55501 30.4424 7.58691H30.4561L30.5791 7.49805H30.5996C30.6178 7.49805 30.627 7.50488 30.627 7.51855C30.6224 7.51855 30.6201 7.52311 30.6201 7.53223C30.6429 7.53223 30.6657 7.54818 30.6885 7.58008L30.668 7.62109L30.6885 7.62793C30.693 7.6097 30.7021 7.60059 30.7158 7.60059H30.7295V7.61426C30.7295 7.63704 30.709 7.65072 30.668 7.65527C30.668 7.66439 30.6725 7.66895 30.6816 7.66895L30.6748 7.69629V7.70312H30.6885L30.6816 7.68262L30.6953 7.67578L30.7021 7.7168C30.6201 7.8444 30.5677 7.9082 30.5449 7.9082V7.93555H30.5723C30.5677 7.91732 30.5859 7.89681 30.627 7.87402H30.6406C30.6589 7.87402 30.668 7.88314 30.668 7.90137L30.3604 8.12012C30.333 8.11556 30.3193 8.10872 30.3193 8.09961L30.1689 8.22949H30.1553L30.1143 8.20898H30.1006C30.0641 8.26367 30.014 8.30924 29.9502 8.3457C29.932 8.38672 29.9183 8.40723 29.9092 8.40723L29.9229 8.43457C29.9229 8.4528 29.916 8.46191 29.9023 8.46191L29.875 8.45508L29.8135 8.46875C29.8089 8.45508 29.7998 8.44824 29.7861 8.44824H29.7725L29.7861 8.47559V8.48926H29.7656L29.7793 8.5166V8.53711L29.5947 8.6875C29.5719 8.71484 29.5469 8.72852 29.5195 8.72852C29.4466 8.83333 29.3737 8.91309 29.3008 8.96777L29.2529 8.97461V8.94727L29.2393 8.9541C29.1663 8.99967 29.1344 9.05664 29.1436 9.125L29.1025 9.15918L29.1367 9.20703C29.1276 9.20703 29.1003 9.23893 29.0547 9.30273L29.0752 9.32324V9.37793L29.0479 9.43262C29.0661 9.46452 29.0775 9.49186 29.082 9.51465L29.0615 9.56934C29.0798 9.61035 29.0911 9.64225 29.0957 9.66504C29.1003 9.81087 29.0934 9.91797 29.0752 9.98633C29.0934 10.0638 29.1208 10.1208 29.1572 10.1572L29.1367 10.1709C29.1549 10.2119 29.1663 10.2461 29.1709 10.2734C29.1755 10.319 29.18 10.4535 29.1846 10.6768C29.1982 10.7087 29.2074 10.7383 29.2119 10.7656H29.1982L29.2119 10.7861V10.7998C29.2119 10.8089 29.2096 10.8135 29.2051 10.8135L29.2188 10.8408L29.2256 10.9023L29.1846 10.9092V10.916C29.1891 10.9342 29.1982 10.9434 29.2119 10.9434L29.2051 10.9707C29.2689 11.071 29.3031 11.1553 29.3076 11.2236C29.3122 11.251 29.3099 11.3193 29.3008 11.4287C29.3145 11.4424 29.3213 11.4538 29.3213 11.4629L29.3076 11.4697L29.3213 11.4902L29.3008 11.5312C29.3281 11.5358 29.3441 11.5586 29.3486 11.5996V11.6406C29.3805 11.9095 29.3783 12.0462 29.3418 12.0508C29.3327 12.0326 29.3281 12.0189 29.3281 12.0098L29.3145 12.0166C29.3236 12.0986 29.2939 12.1784 29.2256 12.2559C29.1937 12.2741 29.18 12.2992 29.1846 12.3311L29.2051 12.3174H29.2188V12.3311L29.1299 12.4404H29.1641C29.1185 12.5544 28.9248 12.6888 28.583 12.8438H28.5625L28.5557 12.8301C28.4645 12.8665 28.403 12.887 28.3711 12.8916C28.3574 12.8825 28.346 12.8779 28.3369 12.8779C28.3369 12.8962 28.3278 12.9053 28.3096 12.9053L28.2617 12.9121L28.2344 12.9053C28.2344 12.9189 28.223 12.9281 28.2002 12.9326C28.1865 12.9326 28.1592 12.9258 28.1182 12.9121C28.1227 12.9258 28.1136 12.9417 28.0908 12.96L27.9746 12.9668C27.929 12.9714 27.8698 12.9827 27.7969 13.001C27.7832 12.9919 27.7718 12.9896 27.7627 12.9941C27.749 13.0033 27.7308 13.0078 27.708 13.0078V12.9941C27.6943 13.0078 27.6829 13.0146 27.6738 13.0146C27.6556 13.0146 27.6077 13.0146 27.5303 13.0146C27.5166 13.0238 27.5052 13.0283 27.4961 13.0283C27.2135 12.9919 27.0381 12.9349 26.9697 12.8574C26.9242 12.8438 26.8604 12.7617 26.7783 12.6113C26.751 12.6113 26.7168 12.5635 26.6758 12.4678H26.6621C26.6621 12.4769 26.6576 12.4814 26.6484 12.4814C26.6393 12.4678 26.6348 12.4564 26.6348 12.4473C26.6348 12.3698 26.6325 12.3219 26.6279 12.3037C26.6188 12.3083 26.6051 12.2969 26.5869 12.2695L26.5801 12.1738C26.5755 12.1556 26.5801 12.1123 26.5938 12.0439C26.5892 12.0348 26.5846 12.0303 26.5801 12.0303C26.5755 11.9619 26.5869 11.889 26.6143 11.8115C26.6143 11.7432 26.6279 11.7044 26.6553 11.6953L26.6621 11.7295H26.6758C26.694 11.6292 26.7191 11.554 26.751 11.5039C26.7419 11.4902 26.7373 11.4788 26.7373 11.4697C26.751 11.4652 26.7692 11.4082 26.792 11.2988L26.9971 10.9434H27.0107V10.957L27.0039 10.9775H27.0381C27.0381 10.9456 27.0609 10.9229 27.1064 10.9092L27.0928 10.8818C27.1064 10.859 27.1133 10.8363 27.1133 10.8135L27.1406 10.8271C27.168 10.7952 27.1976 10.7497 27.2295 10.6904C27.2432 10.6904 27.2773 10.6608 27.332 10.6016L27.3594 10.6152C27.3822 10.5514 27.4049 10.5195 27.4277 10.5195L27.4072 10.458L27.4004 10.417L27.4551 10.4102C27.446 10.3509 27.4824 10.2917 27.5645 10.2324H27.5713L27.5986 10.2461L27.6738 10.082C27.7148 10.0547 27.7422 10.0387 27.7559 10.0342C27.7559 10.0433 27.7604 10.0479 27.7695 10.0479C27.765 9.99772 27.8333 9.90658 27.9746 9.77441C27.9701 9.7653 27.9997 9.72656 28.0635 9.6582H28.0771C28.0771 9.67643 28.0817 9.68555 28.0908 9.68555L28.2275 9.52832C28.2822 9.45085 28.3392 9.39844 28.3984 9.37109C28.4714 9.23438 28.5329 9.16374 28.583 9.15918C28.6377 9.10905 28.6628 9.07259 28.6582 9.0498H28.6719C28.681 9.0498 28.6855 9.05208 28.6855 9.05664C28.722 9.04297 28.7493 9.01562 28.7676 8.97461H28.7539L28.7676 8.94727L28.7539 8.85156L28.7676 8.84473L28.7607 8.64648L28.7334 8.66016L28.7197 8.63281C28.7334 8.63281 28.7607 8.61458 28.8018 8.57812L28.8291 8.58496C28.8245 8.5485 28.8268 8.52344 28.8359 8.50977C28.8177 8.50977 28.8086 8.49837 28.8086 8.47559C28.804 8.43457 28.8018 8.38444 28.8018 8.3252C28.7881 8.27962 28.779 8.23177 28.7744 8.18164L28.7539 8.20215H28.7402L28.7334 8.1748H28.7607L28.7539 8.08594H28.7266C28.7448 7.97656 28.7607 7.9196 28.7744 7.91504C28.7744 7.92415 28.779 7.92871 28.7881 7.92871L28.7812 7.90137L28.7539 7.86719L28.8086 7.63477C28.7904 7.63477 28.7812 7.62793 28.7812 7.61426L28.7676 7.48438C28.763 7.45247 28.7812 7.38184 28.8223 7.27246L28.8018 7.21094C28.8109 7.21094 28.8291 7.18132 28.8564 7.12207V7.1084C28.8109 7.12207 28.7699 7.15169 28.7334 7.19727C28.7334 7.18815 28.7288 7.18359 28.7197 7.18359C28.6514 7.32031 28.5921 7.39095 28.542 7.39551C28.5329 7.39551 28.5283 7.39095 28.5283 7.38184C28.3005 7.62793 28.1683 7.75553 28.1318 7.76465L28.0977 7.77148C28.0977 7.80339 28.0908 7.82161 28.0771 7.82617C28.0589 7.82617 28.0475 7.81022 28.043 7.77832C28.0247 7.79655 27.9883 7.80794 27.9336 7.8125V7.78516L27.9199 7.79199V7.82617L27.8994 7.83301L27.8926 7.79199H27.8789L27.8584 7.80566L27.8447 7.78516L27.8379 7.77148C27.8424 7.77148 27.8607 7.76693 27.8926 7.75781L27.8857 7.74414L27.8105 7.7373L27.8174 7.78516L27.8037 7.79199C27.6715 7.65983 27.6032 7.56413 27.5986 7.50488H27.6055L27.5918 7.47754V7.44336C27.6146 7.4388 27.6214 7.39095 27.6123 7.2998C27.6032 7.2998 27.5986 7.29525 27.5986 7.28613L27.626 7.27246C27.626 7.28158 27.6305 7.28613 27.6396 7.28613L27.6328 7.25879H27.6055V7.21094C27.6009 7.19271 27.6032 7.17448 27.6123 7.15625C27.6123 7.15169 27.6077 7.14941 27.5986 7.14941C27.6032 7.08561 27.6146 7.03776 27.6328 7.00586L27.6191 6.97852C27.6191 6.79167 27.626 6.69824 27.6396 6.69824C27.6396 6.68913 27.6351 6.68457 27.626 6.68457C27.6214 6.64811 27.6328 6.60482 27.6602 6.55469C27.6465 6.55469 27.6374 6.54785 27.6328 6.53418C27.6328 6.52507 27.6374 6.52051 27.6465 6.52051L27.6328 6.49316C27.6191 6.3929 27.6283 6.2015 27.6602 5.91895L27.6465 5.81641C27.6465 5.80729 27.651 5.80273 27.6602 5.80273C27.651 5.77995 27.6419 5.76855 27.6328 5.76855V5.65234C27.6328 5.63867 27.6237 5.58854 27.6055 5.50195C27.6283 5.38346 27.651 5.32194 27.6738 5.31738C27.6738 5.3265 27.6784 5.33105 27.6875 5.33105C27.6875 5.30827 27.7354 5.27637 27.8311 5.23535L27.9131 5.2832V5.29004H27.9268C27.9222 5.26725 27.929 5.25358 27.9473 5.24902H27.9609C27.9837 5.24902 27.9974 5.26497 28.002 5.29688V5.38574L28.0293 5.39941L28.0225 5.37207L28.0498 5.36523L28.0566 5.41992C28.0339 5.45182 28.0247 5.49056 28.0293 5.53613V5.57715L28.0566 5.55664H28.0703V5.58398C28.0703 5.59766 28.0589 5.60677 28.0361 5.61133V5.63867C28.0407 5.66146 28.0589 5.67285 28.0908 5.67285V5.67969L28.0703 5.68652V5.7207H28.0977V5.80957L28.0703 5.80273C28.0703 5.82096 28.068 5.85286 28.0635 5.89844L28.1045 5.92578L28.0977 6.0625L28.1182 6.15137C28.1273 6.46582 28.109 6.66178 28.0635 6.73926C28.0635 6.75749 28.0612 6.80534 28.0566 6.88281C28.0658 6.90104 28.0703 6.91243 28.0703 6.91699C28.0658 6.92155 28.0544 6.9375 28.0361 6.96484L28.0498 6.98535L28.0566 7.0332C28.0293 7.03776 28.0179 7.05371 28.0225 7.08105V7.08789H28.0361C28.0361 7.0651 28.043 7.05143 28.0566 7.04688V7.06055L28.084 7.04688H28.0977L28.0908 7.1084C28.0999 7.12663 28.1045 7.13802 28.1045 7.14258H28.1182C28.4144 6.79167 28.5625 6.58659 28.5625 6.52734L28.6309 6.53418C28.7995 6.28353 28.8838 6.08984 28.8838 5.95312C28.984 5.73438 29.0387 5.59766 29.0479 5.54297C29.0524 5.50195 29.0638 5.47917 29.082 5.47461L29.0615 5.4541L29.1025 5.3584L29.1299 5.37207H29.1436V5.3584H29.1162V5.33105L29.1436 5.34473H29.1572L29.123 5.31055C29.1504 5.30599 29.1618 5.29004 29.1572 5.2627C29.1344 5.26725 29.1208 5.25586 29.1162 5.22852C29.2028 4.89583 29.2643 4.72038 29.3008 4.70215L29.3281 4.71582C29.3281 4.68848 29.335 4.6748 29.3486 4.6748L29.3623 4.66797L29.3691 4.69531H29.3828C29.3783 4.66797 29.3851 4.6543 29.4033 4.6543C29.4033 4.66341 29.4079 4.66797 29.417 4.66797L29.4238 4.64062ZM29.1914 5.09863C29.1686 5.18066 29.1572 5.22852 29.1572 5.24219V5.25586L29.1709 5.24902C29.1663 5.22168 29.1823 5.16927 29.2188 5.0918L29.1914 5.09863ZM28.4189 6.83496C28.4189 6.84863 28.4121 6.85775 28.3984 6.8623V6.87598L28.4189 6.86914L28.4326 6.8418V6.83496H28.4189ZM28.0566 6.9375C28.0749 6.9375 28.084 6.94434 28.084 6.95801L28.0908 6.97168H28.0635L28.0566 6.9375ZM28.248 7.05371H28.2754C28.3346 6.98991 28.3643 6.94889 28.3643 6.93066H28.3369C28.3324 6.93066 28.3027 6.97168 28.248 7.05371ZM28.6377 7.2041V7.21777H28.6582L28.7197 7.13574L28.7129 7.12207C28.681 7.17676 28.6559 7.2041 28.6377 7.2041ZM27.6738 7.52539L27.6807 7.58691H27.6943L27.6875 7.51855L27.6738 7.52539ZM28.7061 7.75781H28.7197C28.7334 7.75781 28.7425 7.76465 28.7471 7.77832L28.7197 7.79199L28.7061 7.77148V7.75781ZM30.4971 7.95605V7.97656H30.5107C30.529 7.97656 30.5358 7.96745 30.5312 7.94922L30.4971 7.95605ZM28.7607 8.29102L28.7676 8.33887H28.7402V8.31836C28.7402 8.30013 28.7471 8.29102 28.7607 8.29102ZM28.8564 8.49609L28.8633 8.53027H28.877C28.8724 8.52116 28.8747 8.50749 28.8838 8.48926L28.8564 8.49609ZM29.0068 8.68066H29.0273L29.0342 8.69434C29.0342 8.70801 29.0251 8.71712 29.0068 8.72168V8.68066ZM29.6084 8.70801H29.6289L29.6357 8.72168C29.6357 8.73079 29.6152 8.75358 29.5742 8.79004H29.5674L29.5605 8.77637C29.5924 8.74447 29.6084 8.72168 29.6084 8.70801ZM28.9932 9.28223V9.2959C29.0114 9.2959 29.0182 9.28678 29.0137 9.26855V9.25488C28.9954 9.25944 28.9886 9.26855 28.9932 9.28223ZM28.4873 9.71973L28.46 9.70605C28.4144 9.74707 28.3939 9.77897 28.3984 9.80176C28.3848 9.81999 28.3415 9.85872 28.2686 9.91797H28.2822C28.2822 9.90885 28.2845 9.9043 28.2891 9.9043L28.2959 9.91797C28.2731 9.95443 28.2617 9.98405 28.2617 10.0068H28.2549L28.2275 10C28.2275 10.0319 28.1888 10.0706 28.1113 10.1162C28.0658 10.1755 28.0156 10.2598 27.9609 10.3691C27.9154 10.3737 27.8447 10.4443 27.749 10.5811L27.626 10.7246L27.6396 10.752L27.6465 10.7725C27.5964 10.818 27.5736 10.8499 27.5781 10.8682L27.5508 10.875V10.8613L27.585 10.8066H27.5713C27.5713 10.8249 27.5439 10.8499 27.4893 10.8818C27.4938 10.9229 27.487 10.9434 27.4688 10.9434L27.4824 10.9707C27.487 11.0072 27.4482 11.0368 27.3662 11.0596C27.3662 11.0687 27.3161 11.1621 27.2158 11.3398C27.2204 11.3854 27.2044 11.4264 27.168 11.4629L27.1816 11.4834L27.1611 11.5244L27.1338 11.5176H27.0996V11.5312L27.127 11.5654C27.1178 11.5654 27.1133 11.57 27.1133 11.5791C27.1406 11.5791 27.1543 11.5905 27.1543 11.6133C27.1042 11.7546 27.0632 11.8822 27.0312 11.9961C27.013 12.0007 26.9971 12.012 26.9834 12.0303L26.9971 12.0508C26.9971 12.0964 26.9971 12.1351 26.9971 12.167C27.0426 12.2035 27.0677 12.2308 27.0723 12.249V12.2832H27.0859V12.2969H27.0654V12.3379C27.0837 12.3971 27.1042 12.429 27.127 12.4336H27.1406V12.4062H27.1611C27.1657 12.4382 27.2249 12.4769 27.3389 12.5225L27.332 12.5498V12.5635L27.3867 12.5566L27.3799 12.5498H27.3594L27.3525 12.5361L27.4072 12.5293C27.4163 12.5293 27.43 12.5407 27.4482 12.5635V12.5771L27.4072 12.5566H27.3936L27.4004 12.5977L27.4756 12.5908C27.471 12.5635 27.4779 12.5498 27.4961 12.5498L27.6738 12.5293C27.6921 12.5293 27.7103 12.5316 27.7285 12.5361C27.7422 12.527 27.7581 12.5202 27.7764 12.5156L27.8652 12.5088C27.8652 12.5179 27.8698 12.5293 27.8789 12.543L27.8516 12.5498L27.8584 12.5635L27.8652 12.5566C27.8835 12.5475 27.8971 12.543 27.9062 12.543C27.9062 12.5566 27.9199 12.568 27.9473 12.5771L27.9951 12.5703V12.5566L27.9541 12.5635V12.5361H27.9814L28.0225 12.5566H28.0361C28.0316 12.5475 28.0339 12.5339 28.043 12.5156L28.002 12.5225V12.4951C28.1615 12.4678 28.248 12.445 28.2617 12.4268L28.2891 12.4404C28.3757 12.4222 28.4258 12.4085 28.4395 12.3994L28.4668 12.4062C28.5169 12.4017 28.6104 12.3379 28.7471 12.2148C28.7972 12.2103 28.8564 12.11 28.9248 11.9141C28.943 11.9095 28.959 11.8776 28.9727 11.8184L28.9521 11.8115L28.959 11.7842L28.9453 11.7568C28.959 11.7204 28.9635 11.6953 28.959 11.6816C28.9408 11.6589 28.9248 11.6133 28.9111 11.5449H28.918L28.9043 11.5244L28.8975 11.4355C28.8883 11.3535 28.8997 11.3079 28.9316 11.2988V11.2646C28.9271 11.2464 28.9202 11.2305 28.9111 11.2168C28.9202 11.1986 28.9225 11.1803 28.918 11.1621C28.9043 11.1667 28.8952 11.1598 28.8906 11.1416C28.8906 11.1325 28.8952 11.1279 28.9043 11.1279L28.8906 11.1006C28.8861 11.096 28.8883 11.0915 28.8975 11.0869C28.8883 11.055 28.8815 11.0277 28.877 11.0049L28.8564 11.0186L28.8359 10.9912L28.8633 10.9775L28.8496 10.957L28.8428 10.9434C28.8428 10.9342 28.8473 10.9297 28.8564 10.9297C28.8382 10.8978 28.8245 10.8522 28.8154 10.793L28.8086 10.7041C28.8086 10.6859 28.8154 10.6768 28.8291 10.6768C28.8337 10.6904 28.8428 10.6973 28.8564 10.6973C28.8656 10.6152 28.8678 10.5514 28.8633 10.5059C28.8542 10.4922 28.8496 10.4808 28.8496 10.4717L28.8223 10.4854C28.8086 10.4854 28.7995 10.4785 28.7949 10.4648V10.4512C28.7949 10.4329 28.8018 10.4238 28.8154 10.4238L28.8428 10.4307C28.8428 10.417 28.8542 10.4079 28.877 10.4033L28.8291 10.1504C28.8018 10.1641 28.7904 10.1755 28.7949 10.1846L28.8086 10.2324C28.7995 10.2689 28.7881 10.2871 28.7744 10.2871L28.7607 10.1504C28.7699 10.1458 28.7835 10.139 28.8018 10.1299C28.8018 10.139 28.8063 10.1436 28.8154 10.1436L28.8086 10.1025L28.7812 10.1094V10.0957C28.7995 10.041 28.8132 10.0137 28.8223 10.0137C28.8268 10.0228 28.8337 10.0273 28.8428 10.0273C28.8382 9.99089 28.8405 9.97266 28.8496 9.97266L28.8291 9.91113L28.8223 9.88379C28.8223 9.84277 28.8291 9.82227 28.8428 9.82227C28.8245 9.79492 28.8132 9.77441 28.8086 9.76074C28.8223 9.76074 28.8314 9.67871 28.8359 9.51465C28.8268 9.51465 28.8223 9.51237 28.8223 9.50781L28.8018 9.52148H28.7881L28.7607 9.50781C28.7607 9.52604 28.7539 9.53743 28.7402 9.54199H28.7129V9.51465L28.7334 9.47363L28.7061 9.4668C28.5785 9.63086 28.5055 9.71517 28.4873 9.71973ZM28.1797 9.53516V9.54883C28.1797 9.5625 28.1706 9.57161 28.1523 9.57617V9.5625C28.1523 9.54427 28.1615 9.53516 28.1797 9.53516ZM28.8838 9.94531C28.8838 9.96354 28.8815 9.97949 28.877 9.99316H28.8975V9.94531H28.8838ZM28.2412 10.0479H28.2549C28.2549 10.0615 28.2435 10.0752 28.2207 10.0889H28.207C28.207 10.0798 28.2184 10.0661 28.2412 10.0479ZM27.585 10.6768V10.7178C27.6032 10.7132 27.6123 10.7041 27.6123 10.6904L27.6055 10.6768H27.585ZM28.8496 10.7246L28.8701 10.9297L28.8838 10.9229C28.8747 10.8636 28.8747 10.834 28.8838 10.834L28.8701 10.8135V10.7998C28.8701 10.7907 28.8724 10.7861 28.877 10.7861C28.8678 10.7725 28.8633 10.752 28.8633 10.7246H28.8496ZM26.8125 11.3672V11.3809H26.8262C26.8581 11.3307 26.8717 11.2988 26.8672 11.2852C26.8307 11.3171 26.8125 11.3444 26.8125 11.3672ZM29.2393 11.0801C29.2438 11.0892 29.2415 11.1029 29.2324 11.1211L29.2598 11.1279L29.2529 11.0801H29.2393ZM28.9385 11.3672L28.9316 11.4287L28.9385 11.4561C28.9613 11.4515 28.9749 11.4674 28.9795 11.5039L28.9932 11.4971L28.9795 11.374C28.9704 11.374 28.9567 11.3717 28.9385 11.3672ZM27.0723 11.6338C27.0723 11.652 27.0654 11.6794 27.0518 11.7158V11.7295L27.0654 11.7227C27.0654 11.709 27.0768 11.6885 27.0996 11.6611L27.0928 11.6338H27.0723ZM28.9795 11.5107L28.9863 11.5791L29 11.5723L28.9932 11.5107H28.9795ZM28.8975 12.085L28.9111 12.0781C28.9476 12.0189 28.9658 11.9847 28.9658 11.9756H28.9521C28.9157 12.0029 28.8975 12.0394 28.8975 12.085ZM28.7744 12.2354H28.7881C28.8063 12.2171 28.8223 12.2057 28.8359 12.2012V12.1943H28.8223C28.7904 12.208 28.7744 12.2217 28.7744 12.2354ZM27.2637 12.5225L27.2705 12.543C27.2705 12.5566 27.2842 12.568 27.3115 12.5771C27.307 12.568 27.3092 12.5566 27.3184 12.543C27.2956 12.5247 27.2819 12.5179 27.2773 12.5225H27.2637ZM27.5166 12.584C27.5212 12.6022 27.5303 12.609 27.5439 12.6045C27.5576 12.5954 27.569 12.5908 27.5781 12.5908V12.5771L27.5166 12.584ZM29.1914 12.4062H29.2051C29.2051 12.4245 29.196 12.4336 29.1777 12.4336L29.1641 12.4404C29.1686 12.4222 29.1777 12.4108 29.1914 12.4062ZM27.9678 12.8916V12.9053L28.1045 12.8916V12.8779L27.9678 12.8916Z" fill="#2E2E2E"/>
<path d="M32.0283 3.44434H32.042L32.0693 3.45801L32.0557 3.49902C32.0648 3.52181 32.0693 3.54688 32.0693 3.57422H32.0967L32.083 3.5332V3.47852H32.1172C32.1536 3.47852 32.1764 3.6084 32.1855 3.86816L32.1719 3.94336C32.181 3.96159 32.1901 4.02995 32.1992 4.14844H32.1719V4.18262H32.1992C32.181 4.31934 32.1673 4.52441 32.1582 4.79785C32.2038 4.81608 32.2266 4.83431 32.2266 4.85254V4.89355C32.2266 4.98014 32.2174 5.09635 32.1992 5.24219L32.2129 5.33789C32.2038 5.36068 32.1992 5.37891 32.1992 5.39258V5.46777C32.181 5.46777 32.1628 5.56576 32.1445 5.76172L32.1582 5.80273C32.1582 5.81641 32.1536 5.82324 32.1445 5.82324L32.1582 5.85742V5.8916C32.1172 5.8916 32.0967 5.97819 32.0967 6.15137C32.0967 6.18327 32.1035 6.20833 32.1172 6.22656L32.0693 6.43164C32.0693 6.44531 32.0739 6.45215 32.083 6.45215C32.0739 6.54785 32.0648 6.60938 32.0557 6.63672L32.083 6.65723C32.083 6.63444 32.1309 6.58431 32.2266 6.50684C32.263 6.36556 32.3291 6.25391 32.4248 6.17188C32.4248 6.08073 32.5 5.9873 32.6504 5.8916C32.7324 5.78223 32.7848 5.72754 32.8076 5.72754L32.8623 5.74805C32.917 5.69792 32.958 5.67285 32.9854 5.67285L33.0127 5.69336C33.0127 5.66602 33.0332 5.63411 33.0742 5.59766L33.0605 5.55664H33.1016L33.0879 5.52246L33.1426 5.46777H33.2109C33.3112 5.24447 33.4115 5.13281 33.5117 5.13281C33.5117 5.11003 33.5391 5.08496 33.5938 5.05762C33.6667 5.06673 33.7031 5.0804 33.7031 5.09863L33.7373 5.07812H33.7646C33.7646 5.10091 33.7783 5.1123 33.8057 5.1123V5.13281L33.792 5.16699L33.8193 5.15332H33.8467C33.8467 5.17611 33.8558 5.1875 33.874 5.1875V5.22852C33.8376 5.23307 33.8193 5.2513 33.8193 5.2832C33.8376 5.28776 33.8467 5.29915 33.8467 5.31738C33.8467 5.35384 33.8285 5.37207 33.792 5.37207V5.42676C33.8467 5.38118 33.8831 5.3584 33.9014 5.3584C33.7601 5.54069 33.6621 5.6569 33.6074 5.70703H33.5938L33.5664 5.69336C33.5664 5.69792 33.5322 5.75944 33.4639 5.87793C33.4639 5.91439 33.4365 5.94401 33.3818 5.9668C33.1494 6.1901 33.0173 6.30176 32.9854 6.30176C32.9854 6.28809 32.9808 6.28125 32.9717 6.28125V6.32227H32.9307L32.8896 6.28125L32.8213 6.39746H32.835L32.8623 6.37695V6.39746L32.7188 6.60254C32.7188 6.62533 32.7005 6.63672 32.6641 6.63672L32.6777 6.67773C32.6413 6.70052 32.5387 6.86686 32.3701 7.17676C32.3109 7.17676 32.2812 7.21322 32.2812 7.28613V7.34082C32.2585 7.34082 32.2357 7.36133 32.2129 7.40234C32.2129 7.38867 32.2083 7.38184 32.1992 7.38184L32.1582 7.45703L32.1855 7.51172L32.2129 7.49121H32.2539C32.3268 7.49121 32.3929 7.54134 32.4521 7.6416C32.5114 7.6416 32.5547 7.69629 32.582 7.80566H32.5479C32.6162 7.8877 32.6686 7.99935 32.7051 8.14062L32.8486 8.49609V8.5166L32.917 8.49609C32.9762 8.64193 33.0195 8.71484 33.0469 8.71484C33.1107 8.71484 33.179 8.76042 33.252 8.85156C33.252 8.81055 33.2633 8.79004 33.2861 8.79004H33.3818C33.596 8.79004 33.8171 8.72168 34.0449 8.58496C34.0632 8.53939 34.111 8.49154 34.1885 8.44141V8.4209H34.2158V8.47559H34.2432C34.2432 8.3571 34.3229 8.27051 34.4824 8.21582V8.23633L34.4551 8.29102V8.31152H34.4688C34.5326 8.27507 34.569 8.25684 34.5781 8.25684C34.6283 8.27051 34.6533 8.28874 34.6533 8.31152H34.6328C34.6875 8.43457 34.7308 8.49609 34.7627 8.49609V8.53027C34.7627 8.5485 34.7262 8.5918 34.6533 8.66016L34.667 8.70117V8.71484H34.6328V8.73535H34.6533C34.6807 8.73535 34.6943 8.71712 34.6943 8.68066C34.7126 8.68522 34.7217 8.69661 34.7217 8.71484C34.7217 8.72852 34.6374 8.81738 34.4688 8.98145C34.4688 8.99967 34.4482 9.02246 34.4072 9.0498C34.4072 9.02702 34.3981 9.01562 34.3799 9.01562C34.348 9.0293 34.2979 9.09082 34.2295 9.2002C34.2751 9.16374 34.307 9.14551 34.3252 9.14551V9.17969C34.1748 9.27995 34.0814 9.33008 34.0449 9.33008L34.0176 9.27539L33.8877 9.35059V9.37109H33.9014C33.9424 9.34375 33.972 9.33008 33.9902 9.33008V9.38477C33.9629 9.38477 33.9378 9.39844 33.915 9.42578H33.9014C33.8923 9.42578 33.8877 9.41895 33.8877 9.40527L33.8604 9.42578H33.8193C33.8102 9.42578 33.8057 9.41895 33.8057 9.40527C33.7282 9.4554 33.6758 9.48047 33.6484 9.48047H33.5938L33.498 9.45996C33.498 9.52376 33.416 9.55566 33.252 9.55566C33.1927 9.55566 33.1289 9.5306 33.0605 9.48047L33.0332 9.50098C32.9193 9.47363 32.8623 9.43034 32.8623 9.37109L32.835 9.38477C32.6846 9.20703 32.6094 9.10221 32.6094 9.07031C32.582 9.07031 32.557 9.04525 32.5342 8.99512L32.5068 9.01562C32.4932 9.01562 32.4658 8.97233 32.4248 8.88574C32.4339 8.86296 32.4385 8.84473 32.4385 8.83105C32.4202 8.83105 32.4066 8.77409 32.3975 8.66016C32.3792 8.63281 32.3405 8.60775 32.2812 8.58496V8.55078H32.2949C32.3132 8.56445 32.3291 8.57129 32.3428 8.57129V8.53027C32.2653 8.37533 32.2266 8.28418 32.2266 8.25684H32.1855L32.1582 8.27051L32.1172 8.19531C32.0169 8.22721 31.9303 8.30924 31.8574 8.44141C31.8027 8.49609 31.7617 8.58724 31.7344 8.71484C31.7116 8.71484 31.6729 8.85156 31.6182 9.125C31.5771 9.125 31.527 9.22982 31.4678 9.43945L31.4951 9.53516C31.4723 9.69466 31.4154 9.83138 31.3242 9.94531C31.3105 9.94531 31.2923 9.95671 31.2695 9.97949H31.2148L31.1875 9.96582C31.1875 9.98861 31.1761 10 31.1533 10H31.1123C31.0895 10 31.0758 9.97493 31.0713 9.9248L31.0439 9.94531C31.0212 9.91797 31.0075 9.9043 31.0029 9.9043C30.9847 9.91797 30.971 9.9248 30.9619 9.9248L30.9414 9.89062V9.79492H30.9277C30.9186 9.80859 30.8958 9.81543 30.8594 9.81543C30.8594 9.77897 30.8503 9.73568 30.832 9.68555C30.8594 9.38932 30.8822 9.24121 30.9004 9.24121C30.9095 9.264 30.9141 9.28223 30.9141 9.2959C30.9323 9.2959 30.9619 9.17057 31.0029 8.91992C31.0439 8.84245 31.0804 8.75586 31.1123 8.66016C31.126 8.66016 31.1647 8.60547 31.2285 8.49609C31.2467 8.49609 31.2559 8.46419 31.2559 8.40039C31.2559 8.39128 31.2513 8.35482 31.2422 8.29102C31.2741 8.26823 31.3105 8.19303 31.3516 8.06543C31.3652 8.06543 31.3949 8.02214 31.4404 7.93555L31.4268 7.90137C31.4268 7.86947 31.4404 7.8125 31.4678 7.73047C31.4587 7.70768 31.4541 7.68945 31.4541 7.67578C31.4951 7.32943 31.5407 7.15625 31.5908 7.15625C31.5999 7.13346 31.6045 7.1084 31.6045 7.08105C31.5863 7.08105 31.5726 7.03776 31.5635 6.95117C31.5726 6.95117 31.5771 6.94661 31.5771 6.9375C31.568 6.9375 31.5635 6.93066 31.5635 6.91699C31.5817 6.90332 31.5954 6.89648 31.6045 6.89648C31.6045 6.86914 31.5999 6.84408 31.5908 6.82129C31.5999 6.78483 31.609 6.7666 31.6182 6.7666C31.6501 6.79395 31.6751 6.80762 31.6934 6.80762V6.69141H31.666C31.6842 6.62305 31.7025 6.5 31.7207 6.32227L31.707 6.22656C31.707 6.20378 31.7116 6.19238 31.7207 6.19238L31.707 6.0625V5.87793C31.707 5.84147 31.7253 5.75488 31.7617 5.61816C31.7435 5.61816 31.7344 5.60449 31.7344 5.57715H31.7617V5.50195H31.7344V5.48828C31.7435 5.48828 31.7572 5.48145 31.7754 5.46777L31.7617 5.42676C31.7617 5.3903 31.7663 5.37207 31.7754 5.37207C31.7526 5.12598 31.7389 5.00293 31.7344 5.00293H31.7207V4.98242C31.7207 4.97331 31.7253 4.96875 31.7344 4.96875L31.7207 4.92773C31.7298 4.89128 31.7389 4.87305 31.748 4.87305L31.7344 4.83887V4.70215C31.7344 4.69303 31.7389 4.68848 31.748 4.68848L31.707 4.37402L31.7207 4.33301C31.7116 4.31022 31.707 4.29199 31.707 4.27832H31.7207L31.707 4.24414V4.07324H31.7344V3.97754C31.7389 3.90462 31.7526 3.86816 31.7754 3.86816C31.7754 3.88184 31.7799 3.88867 31.7891 3.88867V3.84766H31.7617V3.83398H31.7891V3.79297C31.7617 3.79297 31.7389 3.7679 31.7207 3.71777H31.748C31.748 3.69499 31.7344 3.68359 31.707 3.68359C31.7253 3.65169 31.7344 3.61979 31.7344 3.58789L31.7617 3.6084C31.7754 3.52181 31.8073 3.47852 31.8574 3.47852L31.8779 3.51953L31.9463 3.45801C31.9645 3.46257 31.9736 3.47624 31.9736 3.49902C32.0101 3.48991 32.0283 3.47168 32.0283 3.44434ZM32.1992 3.83398C32.2174 3.83398 32.2311 3.88867 32.2402 3.99805H32.2266C32.2083 3.99805 32.1992 3.98665 32.1992 3.96387V3.83398ZM32.1719 4.83887V4.94824H32.1855C32.1855 4.9209 32.1901 4.90723 32.1992 4.90723C32.1901 4.889 32.1855 4.86621 32.1855 4.83887H32.1719ZM33.252 5.42676V5.46777H33.2861C33.2861 5.44954 33.2998 5.42448 33.3271 5.39258C33.2952 5.41536 33.2702 5.42676 33.252 5.42676ZM33.7373 5.44727L33.7168 5.48828C33.735 5.47461 33.751 5.46777 33.7646 5.46777V5.44727H33.7373ZM33.1289 5.54297H33.1426C33.1608 5.54297 33.1699 5.5293 33.1699 5.50195H33.1562C33.138 5.50651 33.1289 5.52018 33.1289 5.54297ZM31.6523 5.9873H31.6797V6.09668H31.6523V5.9873ZM33.0469 6.21289H33.0742C33.1289 6.16276 33.1608 6.11263 33.1699 6.0625H33.1562C33.1426 6.0625 33.1061 6.11263 33.0469 6.21289ZM32.623 6.54785C32.623 6.57064 32.6322 6.58203 32.6504 6.58203L32.6777 6.52734H32.6641C32.6458 6.54102 32.6322 6.54785 32.623 6.54785ZM32.4111 6.87598C32.4111 6.89876 32.402 6.92383 32.3838 6.95117H32.3975L32.4385 6.87598H32.4111ZM31.7617 8.49609L31.7344 8.55078V8.57129C31.7572 8.53483 31.7754 8.5166 31.7891 8.5166V8.49609H31.7617ZM34.0859 8.62598H34.0996C34.1224 8.59863 34.1406 8.58496 34.1543 8.58496V8.57129H34.1406C34.1042 8.58952 34.0859 8.60775 34.0859 8.62598ZM32.958 8.68066V8.71484L32.9854 8.73535H32.999V8.71484C32.9808 8.71484 32.9717 8.70345 32.9717 8.68066H32.958ZM34.5508 8.96094H34.5645C34.5645 8.98372 34.5553 8.99512 34.5371 8.99512H34.5234C34.528 8.97233 34.5371 8.96094 34.5508 8.96094Z" fill="#2E2E2E"/>
<path d="M1 20.6826C1.80955 19.8994 2.57928 19.073 3.42865 18.3332C5.37757 16.6359 6.50362 15.8877 8.75054 14.6959C10.0319 14.0163 11.3498 13.5179 12.6938 13" stroke="#2E2E2E" stroke-linecap="round"/>
<path d="M1 20.4106C1.17804 18.6525 1.73889 17.2951 2.73889 15.7951" stroke="#2E2E2E" stroke-linecap="round"/>
<path d="M1.23889 20.7951C3.66459 19.8932 4.17719 19.9064 6.73889 19.7951" stroke="#2E2E2E" stroke-linecap="round"/>
</svg>
